<svg width="1440" height="800" viewBox="0 0 1440 800" fill="none" xmlns="http://www.w3.org/2000/svg">
<g clip-path="url(#clip0_0_265)">
<rect width="1440" height="800" fill="#1D1E28"/>
<rect y="3" width="1440" height="797" fill="url(#paint0_linear_0_265)"/>
<path fill-rule="evenodd" clip-rule="evenodd" d="M281.5 3C280.672 3 280 3.67157 280 4.5C280 5.32843 280.672 6 281.5 6C282.328 6 283 5.32843 283 4.5C283 3.67157 282.328 3 281.5 3ZM571.5 13C570.672 13 570 13.6716 570 14.5C570 15.3284 570.672 16 571.5 16C572.328 16 573 15.3284 573 14.5C573 13.6716 572.328 13 571.5 13ZM0 18.5C0 17.6716 0.671573 17 1.5 17C2.32843 17 3 17.6716 3 18.5C3 19.3284 2.32843 20 1.5 20C0.671573 20 0 19.3284 0 18.5ZM412 32C413.657 32 415 30.6569 415 29C415 27.3431 413.657 26 412 26C410.343 26 409 27.3431 409 29C409 30.6569 410.343 32 412 32ZM1136 38C1134.34 38 1133 36.6569 1133 35C1133 33.3431 1134.34 32 1136 32C1137.66 32 1139 33.3431 1139 35C1139 36.6569 1137.66 38 1136 38ZM108 116C108 117.657 106.657 119 105 119C103.343 119 102 117.657 102 116C102 114.343 103.343 113 105 113C106.657 113 108 114.343 108 116ZM253 351C253 352.657 251.657 354 250 354C248.343 354 247 352.657 247 351C247 349.343 248.343 348 250 348C251.657 348 253 349.343 253 351ZM1206 308C1207.66 308 1209 306.657 1209 305C1209 303.343 1207.66 302 1206 302C1204.34 302 1203 303.343 1203 305C1203 306.657 1204.34 308 1206 308ZM1205 232C1205 233.657 1206.34 235 1208 235C1209.66 235 1211 233.657 1211 232C1211 230.343 1209.66 229 1208 229C1206.34 229 1205 230.343 1205 232ZM1351 543C1352.66 543 1354 541.657 1354 540C1354 538.343 1352.66 537 1351 537C1349.34 537 1348 538.343 1348 540C1348 541.657 1349.34 543 1351 543ZM181 548C181 549.657 179.657 551 178 551C176.343 551 175 549.657 175 548C175 546.343 176.343 545 178 545C179.657 545 181 546.343 181 548ZM280 516C281.657 516 283 514.657 283 513C283 511.343 281.657 510 280 510C278.343 510 277 511.343 277 513C277 514.657 278.343 516 280 516ZM777 569C777 570.657 775.657 572 774 572C772.343 572 771 570.657 771 569C771 567.343 772.343 566 774 566C775.657 566 777 567.343 777 569ZM1103 197C1103 198.657 1104.34 200 1106 200C1107.66 200 1109 198.657 1109 197C1109 195.343 1107.66 194 1106 194C1104.34 194 1103 195.343 1103 197ZM605 224.5C605 223.672 605.672 223 606.5 223C607.328 223 608 223.672 608 224.5C608 225.328 607.328 226 606.5 226C605.672 226 605 225.328 605 224.5ZM536.5 109C535.672 109 535 109.672 535 110.5C535 111.328 535.672 112 536.5 112C537.328 112 538 111.328 538 110.5C538 109.672 537.328 109 536.5 109ZM70 132.5C70 131.672 70.6716 131 71.5 131C72.3284 131 73 131.672 73 132.5C73 133.328 72.3284 134 71.5 134C70.6716 134 70 133.328 70 132.5ZM70.5 167C71.3284 167 72 167.672 72 168.5C72 169.328 71.3284 170 70.5 170C69.6716 170 69 169.328 69 168.5C69 167.672 69.6716 167 70.5 167ZM520 31.5C520 30.6716 520.672 30 521.5 30C522.328 30 523 30.6716 523 31.5C523 32.3284 522.328 33 521.5 33C520.672 33 520 32.3284 520 31.5ZM107 263.5C107 262.672 106.328 262 105.5 262C104.672 262 104 262.672 104 263.5C104 264.328 104.672 265 105.5 265C106.328 265 107 264.328 107 263.5ZM120.5 184C121.328 184 122 184.672 122 185.5C122 186.328 121.328 187 120.5 187C119.672 187 119 186.328 119 185.5C119 184.672 119.672 184 120.5 184ZM456 266.5C456 265.672 456.672 265 457.5 265C458.328 265 459 265.672 459 266.5C459 267.328 458.328 268 457.5 268C456.672 268 456 267.328 456 266.5ZM1.5 519C2.32843 519 3 519.672 3 520.5C3 521.328 2.32843 522 1.5 522C0.671573 522 0 521.328 0 520.5C0 519.672 0.671573 519 1.5 519ZM73 406.5C73 405.672 72.3284 405 71.5 405C70.6716 405 70 405.672 70 406.5C70 407.328 70.6716 408 71.5 408C72.3284 408 73 407.328 73 406.5ZM536.5 427C537.328 427 538 427.672 538 428.5C538 429.328 537.328 430 536.5 430C535.672 430 535 429.328 535 428.5C535 427.672 535.672 427 536.5 427ZM536 464.5C536 463.672 536.672 463 537.5 463C538.328 463 539 463.672 539 464.5C539 465.328 538.328 466 537.5 466C536.672 466 536 465.328 536 464.5ZM606.5 313C607.328 313 608 313.672 608 314.5C608 315.328 607.328 316 606.5 316C605.672 316 605 315.328 605 314.5C605 313.672 605.672 313 606.5 313ZM38 310.5C38 309.672 37.3284 309 36.5 309C35.6716 309 35 309.672 35 310.5C35 311.328 35.6716 312 36.5 312C37.3284 312 38 311.328 38 310.5ZM86.5 326C87.3284 326 88 326.672 88 327.5C88 328.328 87.3284 329 86.5 329C85.6716 329 85 328.328 85 327.5C85 326.672 85.6716 326 86.5 326ZM328 300.5C328 299.672 327.328 299 326.5 299C325.672 299 325 299.672 325 300.5C325 301.328 325.672 302 326.5 302C327.328 302 328 301.328 328 300.5ZM502.5 558C501.672 558 501 558.672 501 559.5C501 560.328 501.672 561 502.5 561C503.328 561 504 560.328 504 559.5C504 558.672 503.328 558 502.5 558ZM486 481.5C486 480.672 486.672 480 487.5 480C488.328 480 489 480.672 489 481.5C489 482.328 488.328 483 487.5 483C486.672 483 486 482.328 486 481.5ZM150.5 561C151.328 561 152 561.672 152 562.5C152 563.328 151.328 564 150.5 564C149.672 564 149 563.328 149 562.5C149 561.672 149.672 561 150.5 561ZM702 342.5C702 343.328 701.328 344 700.5 344C699.672 344 699 343.328 699 342.5C699 341.672 699.672 341 700.5 341C701.328 341 702 341.672 702 342.5ZM770.5 458C771.328 458 772 457.328 772 456.5C772 455.672 771.328 455 770.5 455C769.672 455 769 455.672 769 456.5C769 457.328 769.672 458 770.5 458ZM1237 434.5C1237 435.328 1236.33 436 1235.5 436C1234.67 436 1234 435.328 1234 434.5C1234 433.672 1234.67 433 1235.5 433C1236.33 433 1237 433.672 1237 434.5ZM1236.5 400C1235.67 400 1235 399.328 1235 398.5C1235 397.672 1235.67 397 1236.5 397C1237.33 397 1238 397.672 1238 398.5C1238 399.328 1237.33 400 1236.5 400ZM1307 548.5C1307 549.328 1306.33 550 1305.5 550C1304.67 550 1304 549.328 1304 548.5C1304 547.672 1304.67 547 1305.5 547C1306.33 547 1307 547.672 1307 548.5ZM735.5 554C736.328 554 737 553.328 737 552.5C737 551.672 736.328 551 735.5 551C734.672 551 734 551.672 734 552.5C734 553.328 734.672 554 735.5 554ZM787 535.5C787 536.328 786.328 537 785.5 537C784.672 537 784 536.328 784 535.5C784 534.672 784.672 534 785.5 534C786.328 534 787 534.672 787 535.5ZM1025.5 564C1026.33 564 1027 563.328 1027 562.5C1027 561.672 1026.33 561 1025.5 561C1024.67 561 1024 561.672 1024 562.5C1024 563.328 1024.67 564 1025.5 564ZM1200 303.5C1200 304.328 1200.67 305 1201.5 305C1202.33 305 1203 304.328 1203 303.5C1203 302.672 1202.33 302 1201.5 302C1200.67 302 1200 302.672 1200 303.5ZM1186.5 383C1185.67 383 1185 382.328 1185 381.5C1185 380.672 1185.67 380 1186.5 380C1187.33 380 1188 380.672 1188 381.5C1188 382.328 1187.33 383 1186.5 383ZM851 300.5C851 301.328 850.328 302 849.5 302C848.672 302 848 301.328 848 300.5C848 299.672 848.672 299 849.5 299C850.328 299 851 299.672 851 300.5ZM1438.5 48C1437.67 48 1437 47.3284 1437 46.5C1437 45.6716 1437.67 45 1438.5 45C1439.33 45 1440 45.6716 1440 46.5C1440 47.3284 1439.33 48 1438.5 48ZM1367 160.5C1367 161.328 1367.67 162 1368.5 162C1369.33 162 1370 161.328 1370 160.5C1370 159.672 1369.33 159 1368.5 159C1367.67 159 1367 159.672 1367 160.5ZM903.5 140C902.672 140 902 139.328 902 138.5C902 137.672 902.672 137 903.5 137C904.328 137 905 137.672 905 138.5C905 139.328 904.328 140 903.5 140ZM904 102.5C904 103.328 903.328 104 902.5 104C901.672 104 901 103.328 901 102.5C901 101.672 901.672 101 902.5 101C903.328 101 904 101.672 904 102.5ZM833.5 254C832.672 254 832 253.328 832 252.5C832 251.672 832.672 251 833.5 251C834.328 251 835 251.672 835 252.5C835 253.328 834.328 254 833.5 254ZM1402 256.5C1402 257.328 1402.67 258 1403.5 258C1404.33 258 1405 257.328 1405 256.5C1405 255.672 1404.33 255 1403.5 255C1402.67 255 1402 255.672 1402 256.5ZM1353.5 241C1352.67 241 1352 240.328 1352 239.5C1352 238.672 1352.67 238 1353.5 238C1354.33 238 1355 238.672 1355 239.5C1355 240.328 1354.33 241 1353.5 241ZM1112 266.5C1112 267.328 1112.67 268 1113.5 268C1114.33 268 1115 267.328 1115 266.5C1115 265.672 1114.33 265 1113.5 265C1112.67 265 1112 265.672 1112 266.5ZM937.5 9C938.328 9 939 8.32843 939 7.5C939 6.67157 938.328 6 937.5 6C936.672 6 936 6.67157 936 7.5C936 8.32843 936.672 9 937.5 9ZM954 85.5C954 86.3284 953.328 87 952.5 87C951.672 87 951 86.3284 951 85.5C951 84.6716 951.672 84 952.5 84C953.328 84 954 84.6716 954 85.5ZM1289.5 6C1288.67 6 1288 5.32843 1288 4.5C1288 3.67157 1288.67 3 1289.5 3C1290.33 3 1291 3.67157 1291 4.5C1291 5.32843 1290.33 6 1289.5 6Z" fill="#46485B"/>
<path fill-rule="evenodd" clip-rule="evenodd" d="M1440 653.205L1088.5 603L949.669 653.205L878 628.102L556 603L398.525 653.205L302.718 628.102L251.39 644.863L45.7037 603L0 620.701V763H1440V653.205Z" fill="#211A29"/>
<path fill-rule="evenodd" clip-rule="evenodd" d="M1394.3 604L1488.94 673.336L1538.99 623.887L1394.3 604Z" fill="#1A1823"/>
<path fill-rule="evenodd" clip-rule="evenodd" d="M1137.28 645.576L1188.61 673.335L1269.21 667.91L1137.28 645.576Z" fill="#1A1823"/>
<path fill-rule="evenodd" clip-rule="evenodd" d="M884 604L1041.47 687.151L1122.4 661.089L884 604Z" fill="#1A1823"/>
<path fill-rule="evenodd" clip-rule="evenodd" d="M351.496 604L490.331 687.151L539.652 658.625L351.496 604Z" fill="#1A1823"/>
<path fill-rule="evenodd" clip-rule="evenodd" d="M0 687.151L351.496 604L490.331 687.151L562 645.576L884 604L1041.47 687.151L1137.28 645.576L1188.61 673.336L1394.3 604L1440 633.317V869H0V687.151Z" fill="#2F2439"/>
<path d="M513.154 157H509.15L505.718 141.6H509.612L511.482 151.148L514.166 141.6H517.708L520.392 151.148L522.262 141.6H526.024L522.592 157H518.588L515.882 147.078L513.154 157ZM535.908 157V141.6H547.546V144.768H539.692V147.694H545.236V150.774H539.692V153.832H547.634V157H535.908ZM559.218 140.5H562.716L560.12 147.188H557.568L559.218 140.5ZM571.985 157V141.6H579.465C580.257 141.6 580.983 141.725 581.643 141.974C582.317 142.209 582.889 142.546 583.359 142.986C583.843 143.411 584.217 143.925 584.481 144.526C584.759 145.127 584.899 145.787 584.899 146.506C584.899 147.474 584.635 148.339 584.107 149.102C583.593 149.865 582.904 150.437 582.039 150.818L585.273 157H581.049L578.255 151.346H575.769V157H571.985ZM579.113 144.724H575.769V148.376H579.113C579.699 148.376 580.169 148.207 580.521 147.87C580.887 147.533 581.071 147.093 581.071 146.55C581.071 146.007 580.887 145.567 580.521 145.23C580.169 144.893 579.699 144.724 579.113 144.724ZM594.953 157V141.6H606.591V144.768H598.737V147.694H604.281V150.774H598.737V153.832H606.679V157H594.953ZM629.375 157V141.6H633.159V153.766H640.793V157H629.375ZM649.684 157L655.69 141.6H660.002L665.92 157H661.828L660.552 153.326H654.92L653.622 157H649.684ZM655.954 150.4H659.54L657.758 145.296L655.954 150.4ZM687.979 150.312C687.979 151.353 687.818 152.299 687.495 153.15C687.173 154.001 686.711 154.727 686.109 155.328C685.523 155.929 684.804 156.399 683.953 156.736C683.117 157.059 682.179 157.22 681.137 157.22C680.096 157.22 679.15 157.059 678.299 156.736C677.463 156.413 676.752 155.951 676.165 155.35C675.579 154.749 675.124 154.023 674.801 153.172C674.479 152.321 674.317 151.368 674.317 150.312V141.6H678.101V150.312C678.101 151.368 678.38 152.219 678.937 152.864C679.495 153.509 680.235 153.832 681.159 153.832C682.083 153.832 682.817 153.509 683.359 152.864C683.917 152.219 684.195 151.368 684.195 150.312V141.6H687.979V150.312ZM698.604 141.6H702.168L709.01 150.928L708.944 141.6H712.508V157H709.164L702.102 147.364L702.168 157H698.604V141.6ZM730.966 153.832C731.655 153.832 732.293 153.671 732.88 153.348C733.466 153.025 734.002 152.549 734.486 151.918L736.972 154.272C736.297 155.152 735.402 155.863 734.288 156.406C733.173 156.949 732.022 157.22 730.834 157.22C729.69 157.22 728.619 157.015 727.622 156.604C726.624 156.193 725.766 155.636 725.048 154.932C724.329 154.228 723.757 153.392 723.332 152.424C722.921 151.456 722.716 150.415 722.716 149.3C722.716 148.185 722.921 147.144 723.332 146.176C723.757 145.193 724.329 144.35 725.048 143.646C725.781 142.942 726.639 142.385 727.622 141.974C728.619 141.563 729.69 141.358 730.834 141.358C732.066 141.358 733.246 141.629 734.376 142.172C735.505 142.715 736.407 143.441 737.082 144.35L734.53 146.77C734.031 146.095 733.466 145.589 732.836 145.252C732.22 144.9 731.552 144.724 730.834 144.724C730.232 144.724 729.675 144.841 729.162 145.076C728.648 145.311 728.201 145.633 727.82 146.044C727.453 146.44 727.16 146.924 726.94 147.496C726.734 148.053 726.632 148.655 726.632 149.3C726.632 149.945 726.742 150.547 726.962 151.104C727.182 151.661 727.482 152.145 727.864 152.556C728.26 152.952 728.722 153.267 729.25 153.502C729.778 153.722 730.35 153.832 730.966 153.832ZM746.556 157V141.6H750.34V147.584H756.566V141.6H760.35V157H756.566V150.906H750.34V157H746.556ZM770.835 157V141.6H774.619V157H770.835ZM785.322 141.6H788.886L795.728 150.928L795.662 141.6H799.226V157H795.882L788.82 147.364L788.886 157H785.322V141.6ZM825.186 149.234C825.186 150.378 824.996 151.441 824.614 152.424C824.233 153.407 823.705 154.257 823.03 154.976C822.356 155.68 821.542 156.237 820.588 156.648C819.65 157.044 818.63 157.242 817.53 157.242C816.401 157.242 815.338 157.037 814.34 156.626C813.358 156.215 812.5 155.658 811.766 154.954C811.048 154.235 810.476 153.392 810.05 152.424C809.64 151.456 809.434 150.415 809.434 149.3C809.434 148.185 809.64 147.144 810.05 146.176C810.476 145.208 811.048 144.372 811.766 143.668C812.485 142.949 813.336 142.385 814.318 141.974C815.301 141.563 816.35 141.358 817.464 141.358C818.74 141.358 819.958 141.622 821.116 142.15C822.275 142.663 823.214 143.397 823.932 144.35L821.27 146.66C820.786 146.015 820.214 145.531 819.554 145.208C818.909 144.885 818.212 144.724 817.464 144.724C816.878 144.724 816.328 144.841 815.814 145.076C815.316 145.311 814.883 145.633 814.516 146.044C814.15 146.44 813.864 146.924 813.658 147.496C813.453 148.053 813.35 148.655 813.35 149.3C813.35 149.96 813.453 150.576 813.658 151.148C813.878 151.705 814.179 152.189 814.56 152.6C814.942 153.011 815.389 153.333 815.902 153.568C816.43 153.803 816.995 153.92 817.596 153.92C818.462 153.92 819.21 153.678 819.84 153.194C820.486 152.71 820.911 152.094 821.116 151.346H817.266V148.156H825.186V149.234ZM846.314 154.888L848.25 152.094C849.306 152.842 850.215 153.37 850.978 153.678C851.74 153.986 852.496 154.14 853.244 154.14C854.05 154.14 854.688 153.993 855.158 153.7C855.627 153.392 855.862 153.003 855.862 152.534C855.862 152.079 855.708 151.735 855.4 151.5C855.106 151.265 854.586 151.075 853.838 150.928L850.56 150.356C849.342 150.121 848.404 149.645 847.744 148.926C847.098 148.207 846.776 147.313 846.776 146.242C846.776 144.761 847.318 143.58 848.404 142.7C849.489 141.82 850.985 141.38 852.892 141.38C854.08 141.38 855.231 141.563 856.346 141.93C857.46 142.282 858.414 142.773 859.206 143.404L857.292 146.154C856.544 145.582 855.788 145.157 855.026 144.878C854.278 144.599 853.5 144.46 852.694 144.46C851.946 144.46 851.366 144.599 850.956 144.878C850.545 145.157 850.34 145.501 850.34 145.912C850.34 146.293 850.472 146.594 850.736 146.814C851.014 147.034 851.462 147.195 852.078 147.298L855.158 147.826C856.595 148.075 857.688 148.574 858.436 149.322C859.184 150.055 859.558 151.009 859.558 152.182C859.558 153.663 858.964 154.873 857.776 155.812C856.588 156.751 854.989 157.22 852.98 157.22C851.762 157.22 850.596 157.022 849.482 156.626C848.382 156.215 847.326 155.636 846.314 154.888ZM884.708 149.3C884.708 150.4 884.502 151.441 884.092 152.424C883.681 153.392 883.116 154.235 882.398 154.954C881.694 155.658 880.858 156.215 879.89 156.626C878.922 157.037 877.88 157.242 876.766 157.242C875.651 157.242 874.602 157.037 873.62 156.626C872.652 156.215 871.808 155.658 871.09 154.954C870.386 154.235 869.828 153.392 869.418 152.424C869.007 151.441 868.802 150.4 868.802 149.3C868.802 148.2 869.007 147.166 869.418 146.198C869.828 145.215 870.386 144.372 871.09 143.668C871.808 142.949 872.652 142.385 873.62 141.974C874.602 141.563 875.651 141.358 876.766 141.358C877.88 141.358 878.922 141.563 879.89 141.974C880.858 142.385 881.694 142.949 882.398 143.668C883.116 144.372 883.681 145.215 884.092 146.198C884.502 147.166 884.708 148.2 884.708 149.3ZM880.792 149.3C880.792 148.655 880.689 148.053 880.484 147.496C880.278 146.924 879.992 146.44 879.626 146.044C879.274 145.633 878.848 145.311 878.35 145.076C877.851 144.841 877.316 144.724 876.744 144.724C876.172 144.724 875.636 144.841 875.138 145.076C874.639 145.311 874.206 145.633 873.84 146.044C873.488 146.44 873.209 146.924 873.004 147.496C872.798 148.053 872.696 148.655 872.696 149.3C872.696 149.945 872.798 150.554 873.004 151.126C873.209 151.683 873.488 152.167 873.84 152.578C874.206 152.974 874.639 153.289 875.138 153.524C875.636 153.759 876.172 153.876 876.744 153.876C877.316 153.876 877.851 153.759 878.35 153.524C878.848 153.289 879.274 152.974 879.626 152.578C879.992 152.167 880.278 151.683 880.484 151.126C880.689 150.554 880.792 149.945 880.792 149.3ZM910.104 149.3C910.104 150.4 909.899 151.441 909.488 152.424C909.077 153.392 908.513 154.235 907.794 154.954C907.09 155.658 906.254 156.215 905.286 156.626C904.318 157.037 903.277 157.242 902.162 157.242C901.047 157.242 899.999 157.037 899.016 156.626C898.048 156.215 897.205 155.658 896.486 154.954C895.782 154.235 895.225 153.392 894.814 152.424C894.403 151.441 894.198 150.4 894.198 149.3C894.198 148.2 894.403 147.166 894.814 146.198C895.225 145.215 895.782 144.372 896.486 143.668C897.205 142.949 898.048 142.385 899.016 141.974C899.999 141.563 901.047 141.358 902.162 141.358C903.277 141.358 904.318 141.563 905.286 141.974C906.254 142.385 907.09 142.949 907.794 143.668C908.513 144.372 909.077 145.215 909.488 146.198C909.899 147.166 910.104 148.2 910.104 149.3ZM906.188 149.3C906.188 148.655 906.085 148.053 905.88 147.496C905.675 146.924 905.389 146.44 905.022 146.044C904.67 145.633 904.245 145.311 903.746 145.076C903.247 144.841 902.712 144.724 902.14 144.724C901.568 144.724 901.033 144.841 900.534 145.076C900.035 145.311 899.603 145.633 899.236 146.044C898.884 146.44 898.605 146.924 898.4 147.496C898.195 148.053 898.092 148.655 898.092 149.3C898.092 149.945 898.195 150.554 898.4 151.126C898.605 151.683 898.884 152.167 899.236 152.578C899.603 152.974 900.035 153.289 900.534 153.524C901.033 153.759 901.568 153.876 902.14 153.876C902.712 153.876 903.247 153.759 903.746 153.524C904.245 153.289 904.67 152.974 905.022 152.578C905.389 152.167 905.675 151.683 905.88 151.126C906.085 150.554 906.188 149.945 906.188 149.3ZM920.32 141.6H923.884L930.726 150.928L930.66 141.6H934.224V157H930.88L923.818 147.364L923.884 157H920.32V141.6Z" fill="white"/>
<g clip-path="url(#clip1_0_265)">
<path d="M423.23 448V438.2H427.22C427.902 438.2 428.541 438.331 429.138 438.592C429.745 438.844 430.268 439.189 430.706 439.628C431.154 440.067 431.504 440.589 431.756 441.196C432.018 441.793 432.148 442.437 432.148 443.128C432.148 443.8 432.018 444.435 431.756 445.032C431.504 445.629 431.154 446.147 430.706 446.586C430.268 447.025 429.745 447.37 429.138 447.622C428.541 447.874 427.902 448 427.22 448H423.23ZM427.22 440.258H425.638V445.942H427.22C427.556 445.942 427.874 445.872 428.172 445.732C428.471 445.583 428.728 445.382 428.942 445.13C429.166 444.878 429.339 444.579 429.46 444.234C429.591 443.889 429.656 443.52 429.656 443.128C429.656 442.727 429.591 442.353 429.46 442.008C429.339 441.653 429.166 441.35 428.942 441.098C428.728 440.837 428.471 440.631 428.172 440.482C427.874 440.333 427.556 440.258 427.22 440.258ZM438.23 448L442.052 438.2H444.796L448.562 448H445.958L445.146 445.662H441.562L440.736 448H438.23ZM442.22 443.8H444.502L443.368 440.552L442.22 443.8ZM456.586 448V444.29L452.61 438.2H455.382L457.86 442.218L460.366 438.2H462.984L458.994 444.276V448H456.586ZM468.954 446.656L470.186 444.878C470.858 445.354 471.436 445.69 471.922 445.886C472.407 446.082 472.888 446.18 473.364 446.18C473.877 446.18 474.283 446.087 474.582 445.9C474.88 445.704 475.03 445.457 475.03 445.158C475.03 444.869 474.932 444.649 474.736 444.5C474.549 444.351 474.218 444.229 473.742 444.136L471.656 443.772C470.881 443.623 470.284 443.319 469.864 442.862C469.453 442.405 469.248 441.835 469.248 441.154C469.248 440.211 469.593 439.46 470.284 438.9C470.974 438.34 471.926 438.06 473.14 438.06C473.896 438.06 474.628 438.177 475.338 438.41C476.047 438.634 476.654 438.947 477.158 439.348L475.94 441.098C475.464 440.734 474.983 440.463 474.498 440.286C474.022 440.109 473.527 440.02 473.014 440.02C472.538 440.02 472.169 440.109 471.908 440.286C471.646 440.463 471.516 440.683 471.516 440.944C471.516 441.187 471.6 441.378 471.768 441.518C471.945 441.658 472.23 441.761 472.622 441.826L474.582 442.162C475.496 442.321 476.192 442.638 476.668 443.114C477.144 443.581 477.382 444.187 477.382 444.934C477.382 445.877 477.004 446.647 476.248 447.244C475.492 447.841 474.474 448.14 473.196 448.14C472.421 448.14 471.679 448.014 470.97 447.762C470.27 447.501 469.598 447.132 468.954 446.656Z" fill="#8385A9"/>
<g clip-path="url(#clip2_0_265)">
<rect x="376" y="268" width="148" height="150" rx="8" fill="#191A23"/>
<rect x="376" y="268" width="148" height="140" rx="8" fill="#343650"/>
<path d="M426.216 366.8C422.589 366.8 419.256 366.107 416.216 364.72C413.229 363.333 410.669 361.387 408.536 358.88C406.456 356.373 404.829 353.333 403.656 349.76C402.536 346.187 401.976 342.24 401.976 337.92C401.976 333.6 402.563 329.68 403.736 326.16C404.909 322.587 406.536 319.547 408.616 317.04C410.749 314.533 413.309 312.587 416.296 311.2C419.283 309.813 422.589 309.12 426.216 309.12C429.843 309.12 433.123 309.813 436.056 311.2C439.043 312.587 441.576 314.533 443.656 317.04C445.789 319.547 447.443 322.587 448.616 326.16C449.789 329.68 450.376 333.6 450.376 337.92C450.376 342.24 449.789 346.187 448.616 349.76C447.496 353.333 445.869 356.373 443.736 358.88C441.656 361.387 439.123 363.333 436.136 364.72C433.149 366.107 429.843 366.8 426.216 366.8ZM426.216 355.92C429.896 355.92 432.803 354.32 434.936 351.12C437.069 347.867 438.136 343.467 438.136 337.92C438.136 332.427 437.069 328.08 434.936 324.88C432.803 321.627 429.896 320 426.216 320C422.536 320 419.603 321.627 417.416 324.88C415.283 328.133 414.216 332.48 414.216 337.92C414.216 343.467 415.283 347.867 417.416 351.12C419.603 354.32 422.536 355.92 426.216 355.92ZM476.968 366.88C473.768 366.88 470.808 366.48 468.088 365.68C465.422 364.827 463.128 363.68 461.208 362.24C459.288 360.8 457.795 359.04 456.728 356.96C455.662 354.88 455.128 352.613 455.128 350.16C455.128 347.227 456.115 344.613 458.088 342.32C460.062 339.973 462.595 338.293 465.688 337.28C463.022 336.213 460.862 334.613 459.208 332.48C457.555 330.347 456.728 327.973 456.728 325.36C456.728 323.067 457.235 320.933 458.248 318.96C459.262 316.933 460.675 315.2 462.488 313.76C464.302 312.32 466.435 311.2 468.888 310.4C471.342 309.547 474.008 309.12 476.888 309.12C479.768 309.12 482.462 309.547 484.968 310.4C487.475 311.2 489.608 312.32 491.368 313.76C493.182 315.2 494.595 316.933 495.608 318.96C496.675 320.933 497.208 323.067 497.208 325.36C497.208 327.973 496.382 330.347 494.728 332.48C493.075 334.613 490.942 336.213 488.328 337.28C491.422 338.293 493.928 339.973 495.848 342.32C497.822 344.613 498.808 347.227 498.808 350.16C498.808 352.613 498.275 354.88 497.208 356.96C496.142 359.04 494.648 360.8 492.728 362.24C490.808 363.68 488.488 364.827 485.768 365.68C483.102 366.48 480.168 366.88 476.968 366.88ZM476.968 333.12C479.262 333.12 481.182 332.48 482.728 331.2C484.275 329.867 485.048 328.213 485.048 326.24C485.048 324.267 484.275 322.64 482.728 321.36C481.182 320.027 479.262 319.36 476.968 319.36C474.675 319.36 472.755 320.027 471.208 321.36C469.662 322.64 468.888 324.267 468.888 326.24C468.888 328.213 469.662 329.867 471.208 331.2C472.755 332.48 474.675 333.12 476.968 333.12ZM476.968 356.56C479.688 356.56 481.928 355.893 483.688 354.56C485.448 353.173 486.328 351.413 486.328 349.28C486.328 347.147 485.448 345.413 483.688 344.08C481.928 342.693 479.688 342 476.968 342C474.248 342 472.008 342.693 470.248 344.08C468.488 345.413 467.608 347.147 467.608 349.28C467.608 351.413 468.488 353.173 470.248 354.56C472.008 355.893 474.248 356.56 476.968 356.56Z" fill="#FB5E84"/>
<path opacity="0.150646" d="M376 338H524V276C524 271.582 520.418 268 516 268H384C379.582 268 376 271.582 376 276V338Z" fill="black"/>
<rect opacity="0.253046" x="376" y="338" width="148" height="1" fill="black"/>
<circle cx="376" cy="338" r="6" fill="#191A23"/>
<circle cx="6" cy="6" r="6" transform="matrix(-1 0 0 1 530 332)" fill="#191A23"/>
</g>
</g>
<g clip-path="url(#clip3_0_265)">
<path d="M593.261 448V438.2H595.669V442.008H599.631V438.2H602.039V448H599.631V444.122H595.669V448H593.261ZM619.657 443.1C619.657 443.8 619.527 444.463 619.265 445.088C619.004 445.704 618.645 446.241 618.187 446.698C617.739 447.146 617.207 447.501 616.591 447.762C615.975 448.023 615.313 448.154 614.603 448.154C613.894 448.154 613.227 448.023 612.601 447.762C611.985 447.501 611.449 447.146 610.991 446.698C610.543 446.241 610.189 445.704 609.927 445.088C609.666 444.463 609.535 443.8 609.535 443.1C609.535 442.4 609.666 441.742 609.927 441.126C610.189 440.501 610.543 439.964 610.991 439.516C611.449 439.059 611.985 438.699 612.601 438.438C613.227 438.177 613.894 438.046 614.603 438.046C615.313 438.046 615.975 438.177 616.591 438.438C617.207 438.699 617.739 439.059 618.187 439.516C618.645 439.964 619.004 440.501 619.265 441.126C619.527 441.742 619.657 442.4 619.657 443.1ZM617.165 443.1C617.165 442.689 617.1 442.307 616.969 441.952C616.839 441.588 616.657 441.28 616.423 441.028C616.199 440.767 615.929 440.561 615.611 440.412C615.294 440.263 614.953 440.188 614.589 440.188C614.225 440.188 613.885 440.263 613.567 440.412C613.25 440.561 612.975 440.767 612.741 441.028C612.517 441.28 612.34 441.588 612.209 441.952C612.079 442.307 612.013 442.689 612.013 443.1C612.013 443.511 612.079 443.898 612.209 444.262C612.34 444.617 612.517 444.925 612.741 445.186C612.975 445.438 613.25 445.639 613.567 445.788C613.885 445.937 614.225 446.012 614.589 446.012C614.953 446.012 615.294 445.937 615.611 445.788C615.929 445.639 616.199 445.438 616.423 445.186C616.657 444.925 616.839 444.617 616.969 444.262C617.1 443.898 617.165 443.511 617.165 443.1ZM635.803 443.744C635.803 444.407 635.7 445.009 635.495 445.55C635.29 446.091 634.996 446.553 634.613 446.936C634.24 447.319 633.782 447.617 633.241 447.832C632.709 448.037 632.112 448.14 631.449 448.14C630.786 448.14 630.184 448.037 629.643 447.832C629.111 447.627 628.658 447.333 628.285 446.95C627.912 446.567 627.622 446.105 627.417 445.564C627.212 445.023 627.109 444.416 627.109 443.744V438.2H629.517V443.744C629.517 444.416 629.694 444.957 630.049 445.368C630.404 445.779 630.875 445.984 631.463 445.984C632.051 445.984 632.518 445.779 632.863 445.368C633.218 444.957 633.395 444.416 633.395 443.744V438.2H635.803V443.744ZM643.71 448V438.2H648.47C648.974 438.2 649.436 438.279 649.856 438.438C650.285 438.587 650.649 438.802 650.948 439.082C651.256 439.353 651.494 439.679 651.662 440.062C651.839 440.445 651.928 440.865 651.928 441.322C651.928 441.938 651.76 442.489 651.424 442.974C651.097 443.459 650.659 443.823 650.108 444.066L652.166 448H649.478L647.7 444.402H646.118V448H643.71ZM648.246 440.188H646.118V442.512H648.246C648.619 442.512 648.918 442.405 649.142 442.19C649.375 441.975 649.492 441.695 649.492 441.35C649.492 441.005 649.375 440.725 649.142 440.51C648.918 440.295 648.619 440.188 648.246 440.188ZM658.783 446.656L660.015 444.878C660.687 445.354 661.266 445.69 661.751 445.886C662.237 446.082 662.717 446.18 663.193 446.18C663.707 446.18 664.113 446.087 664.411 445.9C664.71 445.704 664.859 445.457 664.859 445.158C664.859 444.869 664.761 444.649 664.565 444.5C664.379 444.351 664.047 444.229 663.571 444.136L661.485 443.772C660.711 443.623 660.113 443.319 659.693 442.862C659.283 442.405 659.077 441.835 659.077 441.154C659.077 440.211 659.423 439.46 660.113 438.9C660.804 438.34 661.756 438.06 662.969 438.06C663.725 438.06 664.458 438.177 665.167 438.41C665.877 438.634 666.483 438.947 666.987 439.348L665.769 441.098C665.293 440.734 664.813 440.463 664.327 440.286C663.851 440.109 663.357 440.02 662.843 440.02C662.367 440.02 661.999 440.109 661.737 440.286C661.476 440.463 661.345 440.683 661.345 440.944C661.345 441.187 661.429 441.378 661.597 441.518C661.775 441.658 662.059 441.761 662.451 441.826L664.411 442.162C665.326 442.321 666.021 442.638 666.497 443.114C666.973 443.581 667.211 444.187 667.211 444.934C667.211 445.877 666.833 446.647 666.077 447.244C665.321 447.841 664.304 448.14 663.025 448.14C662.251 448.14 661.509 448.014 660.799 447.762C660.099 447.501 659.427 447.132 658.783 446.656Z" fill="#8385A9"/>
<g clip-path="url(#clip4_0_265)">
<rect x="556" y="268" width="148" height="150" rx="8" fill="#191A23"/>
<rect x="556" y="268" width="148" height="140" rx="8" fill="#343650"/>
<path d="M586.6 366V357.2L610.28 333.76C611.56 332.48 612.494 331.253 613.08 330.08C613.72 328.853 614.04 327.6 614.04 326.32C614.04 324.507 613.24 323.013 611.64 321.84C610.094 320.613 608.147 320 605.8 320C603.294 320 600.947 320.533 598.76 321.6C596.574 322.667 594.2 324.427 591.64 326.88L584.76 318.48C587.96 315.44 591.374 313.147 595 311.6C598.627 310.053 602.36 309.28 606.2 309.28C612.12 309.28 616.894 310.773 620.52 313.76C624.2 316.747 626.04 320.667 626.04 325.52C626.04 328.133 625.454 330.587 624.28 332.88C623.107 335.173 621.267 337.547 618.76 340L602.6 355.6L626.84 355.52V366H586.6ZM674.735 350.16C674.735 352.56 674.175 354.8 673.055 356.88C671.935 358.907 670.388 360.667 668.415 362.16C666.441 363.6 664.068 364.747 661.295 365.6C658.575 366.4 655.588 366.8 652.335 366.8C647.855 366.8 643.668 366 639.775 364.4C635.881 362.8 632.708 360.587 630.255 357.76L638.575 350.08C640.655 352.32 642.681 353.867 644.655 354.72C646.628 355.573 649.135 356 652.175 356C655.215 356 657.641 355.387 659.455 354.16C661.321 352.88 662.255 351.2 662.255 349.12C662.255 347.36 661.588 345.973 660.255 344.96C658.921 343.893 657.135 343.36 654.895 343.36H647.695V333.2H653.615C655.908 333.2 657.695 332.667 658.975 331.6C660.255 330.48 660.895 328.933 660.895 326.96C660.895 324.987 660.041 323.36 658.335 322.08C656.681 320.747 654.601 320.08 652.095 320.08C649.375 320.08 647.055 320.56 645.135 321.52C643.268 322.427 641.241 324.08 639.055 326.48L630.655 318.88C633.268 315.84 636.521 313.467 640.415 311.76C644.361 310 648.415 309.12 652.575 309.12C655.615 309.12 658.415 309.52 660.975 310.32C663.535 311.12 665.721 312.24 667.535 313.68C669.348 315.067 670.761 316.773 671.775 318.8C672.788 320.773 673.295 322.933 673.295 325.28C673.295 328.32 672.308 330.987 670.335 333.28C668.415 335.573 665.881 337.173 662.735 338.08C666.361 338.773 669.268 340.213 671.455 342.4C673.641 344.533 674.735 347.12 674.735 350.16Z" fill="#FB5E84"/>
<path opacity="0.150646" d="M556 338H704V276C704 271.582 700.418 268 696 268H564C559.582 268 556 271.582 556 276V338Z" fill="black"/>
<rect opacity="0.253046" x="556" y="338" width="148" height="1" fill="black"/>
<circle cx="556" cy="338" r="6" fill="#191A23"/>
<circle cx="6" cy="6" r="6" transform="matrix(-1 0 0 1 710 332)" fill="#191A23"/>
</g>
</g>
<g clip-path="url(#clip5_0_265)">
<path d="M765.393 447.3L762.243 441.294V448H760.031V438.2H763.055L765.421 442.904L767.773 438.2H770.797V448H768.529V441.35L765.393 447.3ZM778.757 448V438.2H781.165V448H778.757ZM789.122 438.2H791.39L795.744 444.136L795.702 438.2H797.97V448H795.842L791.348 441.868L791.39 448H789.122V438.2ZM814.572 443.744C814.572 444.407 814.47 445.009 814.264 445.55C814.059 446.091 813.765 446.553 813.382 446.936C813.009 447.319 812.552 447.617 812.01 447.832C811.478 448.037 810.881 448.14 810.218 448.14C809.556 448.14 808.954 448.037 808.412 447.832C807.88 447.627 807.428 447.333 807.054 446.95C806.681 446.567 806.392 446.105 806.186 445.564C805.981 445.023 805.878 444.416 805.878 443.744V438.2H808.286V443.744C808.286 444.416 808.464 444.957 808.818 445.368C809.173 445.779 809.644 445.984 810.232 445.984C810.82 445.984 811.287 445.779 811.632 445.368C811.987 444.957 812.164 444.416 812.164 443.744V438.2H814.572V443.744ZM821.681 440.258V438.2H830.403V440.258H827.253V448H824.845V440.258H821.681ZM837.709 448V438.2H845.115V440.216H840.117V442.078H843.645V444.038H840.117V445.984H845.171V448H837.709ZM852.153 446.656L853.385 444.878C854.057 445.354 854.636 445.69 855.121 445.886C855.606 446.082 856.087 446.18 856.563 446.18C857.076 446.18 857.482 446.087 857.781 445.9C858.08 445.704 858.229 445.457 858.229 445.158C858.229 444.869 858.131 444.649 857.935 444.5C857.748 444.351 857.417 444.229 856.941 444.136L854.855 443.772C854.08 443.623 853.483 443.319 853.063 442.862C852.652 442.405 852.447 441.835 852.447 441.154C852.447 440.211 852.792 439.46 853.483 438.9C854.174 438.34 855.126 438.06 856.339 438.06C857.095 438.06 857.828 438.177 858.537 438.41C859.246 438.634 859.853 438.947 860.357 439.348L859.139 441.098C858.663 440.734 858.182 440.463 857.697 440.286C857.221 440.109 856.726 440.02 856.213 440.02C855.737 440.02 855.368 440.109 855.107 440.286C854.846 440.463 854.715 440.683 854.715 440.944C854.715 441.187 854.799 441.378 854.967 441.518C855.144 441.658 855.429 441.761 855.821 441.826L857.781 442.162C858.696 442.321 859.391 442.638 859.867 443.114C860.343 443.581 860.581 444.187 860.581 444.934C860.581 445.877 860.203 446.647 859.447 447.244C858.691 447.841 857.674 448.14 856.395 448.14C855.62 448.14 854.878 448.014 854.169 447.762C853.469 447.501 852.797 447.132 852.153 446.656Z" fill="#8385A9"/>
<g clip-path="url(#clip6_0_265)">
<rect x="736" y="268" width="148" height="150" rx="8" fill="#191A23"/>
<rect x="736" y="268" width="148" height="140" rx="8" fill="#343650"/>
<path d="M767.449 340.08L768.809 310H805.449V320.48H779.129L778.569 333.04C780.222 332.187 781.956 331.547 783.769 331.12C785.636 330.693 787.556 330.48 789.529 330.48C795.182 330.48 799.742 332.053 803.209 335.2C806.676 338.293 808.409 342.4 808.409 347.52C808.409 350.4 807.849 353.04 806.729 355.44C805.609 357.84 804.036 359.893 802.009 361.6C800.036 363.253 797.609 364.56 794.729 365.52C791.902 366.427 788.782 366.88 785.369 366.88C781.529 366.88 777.876 366.24 774.409 364.96C770.942 363.68 767.769 361.813 764.889 359.36L772.249 350.8C774.596 352.72 776.862 354.107 779.049 354.96C781.236 355.813 783.556 356.24 786.009 356.24C788.889 356.24 791.236 355.52 793.049 354.08C794.862 352.587 795.769 350.613 795.769 348.16C795.769 345.813 794.782 343.867 792.809 342.32C790.836 340.773 788.382 340 785.449 340C783.902 340 782.356 340.24 780.809 340.72C779.262 341.147 777.689 341.787 776.089 342.64L767.449 340.08ZM813.174 340.08L814.534 310H851.174V320.48H824.854L824.294 333.04C825.947 332.187 827.681 331.547 829.494 331.12C831.361 330.693 833.281 330.48 835.254 330.48C840.907 330.48 845.467 332.053 848.934 335.2C852.401 338.293 854.134 342.4 854.134 347.52C854.134 350.4 853.574 353.04 852.454 355.44C851.334 357.84 849.761 359.893 847.734 361.6C845.761 363.253 843.334 364.56 840.454 365.52C837.627 366.427 834.507 366.88 831.094 366.88C827.254 366.88 823.601 366.24 820.134 364.96C816.667 363.68 813.494 361.813 810.614 359.36L817.974 350.8C820.321 352.72 822.587 354.107 824.774 354.96C826.961 355.813 829.281 356.24 831.734 356.24C834.614 356.24 836.961 355.52 838.774 354.08C840.587 352.587 841.494 350.613 841.494 348.16C841.494 345.813 840.507 343.867 838.534 342.32C836.561 340.773 834.107 340 831.174 340C829.627 340 828.081 340.24 826.534 340.72C824.987 341.147 823.414 341.787 821.814 342.64L813.174 340.08Z" fill="#FB5E84"/>
<path opacity="0.150646" d="M736 338H884V276C884 271.582 880.418 268 876 268H744C739.582 268 736 271.582 736 276V338Z" fill="black"/>
<rect opacity="0.253046" x="736" y="338" width="148" height="1" fill="black"/>
<circle cx="736" cy="338" r="6" fill="#191A23"/>
<circle cx="6" cy="6" r="6" transform="matrix(-1 0 0 1 890 332)" fill="#191A23"/>
</g>
</g>
<g clip-path="url(#clip7_0_265)">
<path d="M937.441 446.656L938.673 444.878C939.345 445.354 939.924 445.69 940.409 445.886C940.895 446.082 941.375 446.18 941.851 446.18C942.365 446.18 942.771 446.087 943.069 445.9C943.368 445.704 943.517 445.457 943.517 445.158C943.517 444.869 943.419 444.649 943.223 444.5C943.037 444.351 942.705 444.229 942.229 444.136L940.143 443.772C939.369 443.623 938.771 443.319 938.351 442.862C937.941 442.405 937.735 441.835 937.735 441.154C937.735 440.211 938.081 439.46 938.771 438.9C939.462 438.34 940.414 438.06 941.627 438.06C942.383 438.06 943.116 438.177 943.825 438.41C944.535 438.634 945.141 438.947 945.645 439.348L944.427 441.098C943.951 440.734 943.471 440.463 942.985 440.286C942.509 440.109 942.015 440.02 941.501 440.02C941.025 440.02 940.657 440.109 940.395 440.286C940.134 440.463 940.003 440.683 940.003 440.944C940.003 441.187 940.087 441.378 940.255 441.518C940.433 441.658 940.717 441.761 941.109 441.826L943.069 442.162C943.984 442.321 944.679 442.638 945.155 443.114C945.631 443.581 945.869 444.187 945.869 444.934C945.869 445.877 945.491 446.647 944.735 447.244C943.979 447.841 942.962 448.14 941.683 448.14C940.909 448.14 940.167 448.014 939.457 447.762C938.757 447.501 938.085 447.132 937.441 446.656ZM953.36 448V438.2H960.766V440.216H955.768V442.078H959.296V444.038H955.768V445.984H960.822V448H953.36ZM972.926 445.984C973.365 445.984 973.771 445.881 974.144 445.676C974.517 445.471 974.858 445.167 975.166 444.766L976.748 446.264C976.319 446.824 975.749 447.277 975.04 447.622C974.331 447.967 973.598 448.14 972.842 448.14C972.114 448.14 971.433 448.009 970.798 447.748C970.163 447.487 969.617 447.132 969.16 446.684C968.703 446.236 968.339 445.704 968.068 445.088C967.807 444.472 967.676 443.809 967.676 443.1C967.676 442.391 967.807 441.728 968.068 441.112C968.339 440.487 968.703 439.95 969.16 439.502C969.627 439.054 970.173 438.699 970.798 438.438C971.433 438.177 972.114 438.046 972.842 438.046C973.626 438.046 974.377 438.219 975.096 438.564C975.815 438.909 976.389 439.371 976.818 439.95L975.194 441.49C974.877 441.061 974.517 440.739 974.116 440.524C973.724 440.3 973.299 440.188 972.842 440.188C972.459 440.188 972.105 440.263 971.778 440.412C971.451 440.561 971.167 440.767 970.924 441.028C970.691 441.28 970.504 441.588 970.364 441.952C970.233 442.307 970.168 442.689 970.168 443.1C970.168 443.511 970.238 443.893 970.378 444.248C970.518 444.603 970.709 444.911 970.952 445.172C971.204 445.424 971.498 445.625 971.834 445.774C972.17 445.914 972.534 445.984 972.926 445.984ZM993.588 443.1C993.588 443.8 993.457 444.463 993.196 445.088C992.935 445.704 992.575 446.241 992.118 446.698C991.67 447.146 991.138 447.501 990.522 447.762C989.906 448.023 989.243 448.154 988.534 448.154C987.825 448.154 987.157 448.023 986.532 447.762C985.916 447.501 985.379 447.146 984.922 446.698C984.474 446.241 984.119 445.704 983.858 445.088C983.597 444.463 983.466 443.8 983.466 443.1C983.466 442.4 983.597 441.742 983.858 441.126C984.119 440.501 984.474 439.964 984.922 439.516C985.379 439.059 985.916 438.699 986.532 438.438C987.157 438.177 987.825 438.046 988.534 438.046C989.243 438.046 989.906 438.177 990.522 438.438C991.138 438.699 991.67 439.059 992.118 439.516C992.575 439.964 992.935 440.501 993.196 441.126C993.457 441.742 993.588 442.4 993.588 443.1ZM991.096 443.1C991.096 442.689 991.031 442.307 990.9 441.952C990.769 441.588 990.587 441.28 990.354 441.028C990.13 440.767 989.859 440.561 989.542 440.412C989.225 440.263 988.884 440.188 988.52 440.188C988.156 440.188 987.815 440.263 987.498 440.412C987.181 440.561 986.905 440.767 986.672 441.028C986.448 441.28 986.271 441.588 986.14 441.952C986.009 442.307 985.944 442.689 985.944 443.1C985.944 443.511 986.009 443.898 986.14 444.262C986.271 444.617 986.448 444.925 986.672 445.186C986.905 445.438 987.181 445.639 987.498 445.788C987.815 445.937 988.156 446.012 988.52 446.012C988.884 446.012 989.225 445.937 989.542 445.788C989.859 445.639 990.13 445.438 990.354 445.186C990.587 444.925 990.769 444.617 990.9 444.262C991.031 443.898 991.096 443.511 991.096 443.1ZM1001.24 438.2H1003.5L1007.86 444.136L1007.82 438.2H1010.08V448H1007.96L1003.46 441.868L1003.5 448H1001.24V438.2ZM1018.19 448V438.2H1022.18C1022.86 438.2 1023.5 438.331 1024.1 438.592C1024.7 438.844 1025.22 439.189 1025.66 439.628C1026.11 440.067 1026.46 440.589 1026.71 441.196C1026.97 441.793 1027.11 442.437 1027.11 443.128C1027.11 443.8 1026.97 444.435 1026.71 445.032C1026.46 445.629 1026.11 446.147 1025.66 446.586C1025.22 447.025 1024.7 447.37 1024.1 447.622C1023.5 447.874 1022.86 448 1022.18 448H1018.19ZM1022.18 440.258H1020.6V445.942H1022.18C1022.51 445.942 1022.83 445.872 1023.13 445.732C1023.43 445.583 1023.68 445.382 1023.9 445.13C1024.12 444.878 1024.3 444.579 1024.42 444.234C1024.55 443.889 1024.61 443.52 1024.61 443.128C1024.61 442.727 1024.55 442.353 1024.42 442.008C1024.3 441.653 1024.12 441.35 1023.9 441.098C1023.68 440.837 1023.43 440.631 1023.13 440.482C1022.83 440.333 1022.51 440.258 1022.18 440.258ZM1033.92 446.656L1035.15 444.878C1035.82 445.354 1036.4 445.69 1036.88 445.886C1037.37 446.082 1037.85 446.18 1038.33 446.18C1038.84 446.18 1039.25 446.087 1039.54 445.9C1039.84 445.704 1039.99 445.457 1039.99 445.158C1039.99 444.869 1039.89 444.649 1039.7 444.5C1039.51 444.351 1039.18 444.229 1038.7 444.136L1036.62 443.772C1035.84 443.623 1035.25 443.319 1034.83 442.862C1034.42 442.405 1034.21 441.835 1034.21 441.154C1034.21 440.211 1034.56 439.46 1035.25 438.9C1035.94 438.34 1036.89 438.06 1038.1 438.06C1038.86 438.06 1039.59 438.177 1040.3 438.41C1041.01 438.634 1041.62 438.947 1042.12 439.348L1040.9 441.098C1040.43 440.734 1039.95 440.463 1039.46 440.286C1038.98 440.109 1038.49 440.02 1037.98 440.02C1037.5 440.02 1037.13 440.109 1036.87 440.286C1036.61 440.463 1036.48 440.683 1036.48 440.944C1036.48 441.187 1036.56 441.378 1036.73 441.518C1036.91 441.658 1037.19 441.761 1037.58 441.826L1039.54 442.162C1040.46 442.321 1041.15 442.638 1041.63 443.114C1042.11 443.581 1042.34 444.187 1042.34 444.934C1042.34 445.877 1041.97 446.647 1041.21 447.244C1040.45 447.841 1039.44 448.14 1038.16 448.14C1037.38 448.14 1036.64 448.014 1035.93 447.762C1035.23 447.501 1034.56 447.132 1033.92 446.656Z" fill="#8385A9"/>
<g clip-path="url(#clip8_0_265)">
<rect x="916" y="268" width="148" height="150" rx="8" fill="#191A23"/>
<rect x="916" y="268" width="148" height="140" rx="8" fill="#343650"/>
<path d="M995.228 310V342.96H1001.87V353.44H995.228V366H982.908V353.44H952.988V343.28L980.828 310H995.228ZM965.788 342.96H982.908V322.32L965.788 342.96ZM1026.43 310V366H1014.11V322.8L1003.07 327.36V316.48L1018.67 310H1026.43Z" fill="#FB5E84"/>
<path opacity="0.150646" d="M916 338H1064V276C1064 271.582 1060.42 268 1056 268H924C919.582 268 916 271.582 916 276V338Z" fill="black"/>
<rect opacity="0.253046" x="916" y="338" width="148" height="1" fill="black"/>
<circle cx="916" cy="338" r="6" fill="#191A23"/>
<circle cx="6" cy="6" r="6" transform="matrix(-1 0 0 1 1070 332)" fill="#191A23"/>
</g>
</g>
<path d="M674.675 704H653.325C652.593 704 652 704.593 652 705.325V726.676C652 727.407 652.593 728 653.325 728H664.82V718.706H661.692V715.084H664.82V712.413C664.82 709.313 666.713 707.625 669.479 707.625C670.804 707.625 671.942 707.724 672.274 707.768V711.008L670.356 711.009C668.852 711.009 668.561 711.724 668.561 712.772V715.085H672.148L671.681 718.707H668.561V728H674.677C675.407 728 676 727.407 676 726.675V705.325C676 704.593 675.407 704 674.675 704Z" fill="#8385A9"/>
<path fill-rule="evenodd" clip-rule="evenodd" d="M776 704C772.741 704 772.333 704.014 771.053 704.072C766.695 704.272 764.273 706.69 764.073 711.052C764.014 712.333 764 712.741 764 716C764 719.259 764.014 719.668 764.072 720.948C764.272 725.306 766.69 727.728 771.052 727.928C772.333 727.986 772.741 728 776 728C779.259 728 779.668 727.986 780.948 727.928C785.302 727.728 787.73 725.31 787.927 720.948C787.986 719.668 788 719.259 788 716C788 712.741 787.986 712.333 787.928 711.053C787.732 706.699 785.311 704.273 780.949 704.073C779.668 704.014 779.259 704 776 704ZM776 706.163C779.204 706.163 779.584 706.175 780.85 706.233C784.102 706.381 785.621 707.924 785.769 711.152C785.827 712.417 785.838 712.797 785.838 716.001C785.838 719.206 785.826 719.585 785.769 720.85C785.62 724.075 784.105 725.621 780.85 725.769C779.584 725.827 779.206 725.839 776 725.839C772.796 725.839 772.416 725.827 771.151 725.769C767.891 725.62 766.38 724.07 766.232 720.849C766.174 719.584 766.162 719.205 766.162 716C766.162 712.796 766.175 712.417 766.232 711.151C766.381 707.924 767.896 706.38 771.151 706.232C772.417 706.175 772.796 706.163 776 706.163ZM769.838 716C769.838 712.597 772.597 709.838 776 709.838C779.403 709.838 782.162 712.597 782.162 716C782.162 719.404 779.403 722.163 776 722.163C772.597 722.163 769.838 719.403 769.838 716ZM776 720C773.791 720 772 718.21 772 716C772 713.791 773.791 712 776 712C778.209 712 780 713.791 780 716C780 718.21 778.209 720 776 720ZM780.965 709.595C780.965 708.8 781.61 708.155 782.406 708.155C783.201 708.155 783.845 708.8 783.845 709.595C783.845 710.39 783.201 711.035 782.406 711.035C781.61 711.035 780.965 710.39 780.965 709.595Z" fill="#8385A9"/>
<path d="M720 704C713.373 704 708 709.372 708 716C708 721.084 711.163 725.426 715.627 727.174C715.522 726.225 715.427 724.769 715.669 723.733C715.887 722.796 717.076 717.768 717.076 717.768C717.076 717.768 716.717 717.049 716.717 715.986C716.717 714.318 717.684 713.072 718.888 713.072C719.911 713.072 720.406 713.841 720.406 714.762C720.406 715.791 719.751 717.33 719.412 718.757C719.129 719.951 720.011 720.926 721.189 720.926C723.322 720.926 724.961 718.677 724.961 715.431C724.961 712.558 722.897 710.549 719.949 710.549C716.535 710.549 714.531 713.11 714.531 715.756C714.531 716.787 714.928 717.894 715.424 718.494C715.522 718.613 715.536 718.718 715.507 718.839L715.174 720.199C715.121 720.419 715 720.466 714.772 720.36C713.273 719.662 712.336 717.471 712.336 715.711C712.336 711.926 715.086 708.449 720.265 708.449C724.428 708.449 727.663 711.416 727.663 715.38C727.663 719.516 725.056 722.844 721.436 722.844C720.22 722.844 719.077 722.213 718.686 721.466L717.938 724.319C717.667 725.362 716.936 726.669 716.446 727.465C717.57 727.812 718.763 728 720 728C726.627 728 732 722.627 732 716C732 709.372 726.627 704 720 704Z" fill="#8385A9"/>
</g>
<defs>
<linearGradient id="paint0_linear_0_265" x1="0.437042" y1="3.48382" x2="0.437042" y2="800" gradientUnits="userSpaceOnUse">
<stop offset="0.000607052" stop-color="#1D1E28"/>
<stop offset="0.948321" stop-color="#261C2D"/>
<stop offset="1" stop-color="#261A2D"/>
</linearGradient>
<clipPath id="clip0_0_265">
<rect width="1440" height="800" fill="white"/>
</clipPath>
<clipPath id="clip1_0_265">
<rect width="148" height="184" fill="white" transform="translate(376 268)"/>
</clipPath>
<clipPath id="clip2_0_265">
<rect width="148" height="150" fill="white" transform="translate(376 268)"/>
</clipPath>
<clipPath id="clip3_0_265">
<rect width="148" height="184" fill="white" transform="translate(556 268)"/>
</clipPath>
<clipPath id="clip4_0_265">
<rect width="148" height="150" fill="white" transform="translate(556 268)"/>
</clipPath>
<clipPath id="clip5_0_265">
<rect width="148" height="184" fill="white" transform="translate(736 268)"/>
</clipPath>
<clipPath id="clip6_0_265">
<rect width="148" height="150" fill="white" transform="translate(736 268)"/>
</clipPath>
<clipPath id="clip7_0_265">
<rect width="148" height="184" fill="white" transform="translate(916 268)"/>
</clipPath>
<clipPath id="clip8_0_265">
<rect width="148" height="150" fill="white" transform="translate(916 268)"/>
</clipPath>
</defs>
</svg>
