<svg width="688" height="184" viewBox="0 0 688 184" fill="none" xmlns="http://www.w3.org/2000/svg">
<g clip-path="url(#clip0_0_333)">
<path d="M47.2305 180V170.2H51.2205C51.9018 170.2 52.5411 170.331 53.1385 170.592C53.7451 170.844 54.2678 171.189 54.7065 171.628C55.1545 172.067 55.5045 172.589 55.7565 173.196C56.0178 173.793 56.1485 174.437 56.1485 175.128C56.1485 175.8 56.0178 176.435 55.7565 177.032C55.5045 177.629 55.1545 178.147 54.7065 178.586C54.2678 179.025 53.7451 179.37 53.1385 179.622C52.5411 179.874 51.9018 180 51.2205 180H47.2305ZM51.2205 172.258H49.6385V177.942H51.2205C51.5565 177.942 51.8738 177.872 52.1725 177.732C52.4711 177.583 52.7278 177.382 52.9425 177.13C53.1665 176.878 53.3391 176.579 53.4605 176.234C53.5911 175.889 53.6565 175.52 53.6565 175.128C53.6565 174.727 53.5911 174.353 53.4605 174.008C53.3391 173.653 53.1665 173.35 52.9425 173.098C52.7278 172.837 52.4711 172.631 52.1725 172.482C51.8738 172.333 51.5565 172.258 51.2205 172.258ZM62.2298 180L66.0518 170.2H68.7958L72.5618 180H69.9578L69.1458 177.662H65.5618L64.7358 180H62.2298ZM66.2198 175.8H68.5018L67.3678 172.552L66.2198 175.8ZM80.5864 180V176.29L76.6104 170.2H79.3824L81.8604 174.218L84.3664 170.2H86.9844L82.9944 176.276V180H80.5864ZM92.9537 178.656L94.1857 176.878C94.8577 177.354 95.4364 177.69 95.9217 177.886C96.407 178.082 96.8877 178.18 97.3637 178.18C97.877 178.18 98.283 178.087 98.5817 177.9C98.8804 177.704 99.0297 177.457 99.0297 177.158C99.0297 176.869 98.9317 176.649 98.7357 176.5C98.549 176.351 98.2177 176.229 97.7417 176.136L95.6557 175.772C94.881 175.623 94.2837 175.319 93.8637 174.862C93.453 174.405 93.2477 173.835 93.2477 173.154C93.2477 172.211 93.593 171.46 94.2837 170.9C94.9744 170.34 95.9264 170.06 97.1397 170.06C97.8957 170.06 98.6284 170.177 99.3377 170.41C100.047 170.634 100.654 170.947 101.158 171.348L99.9397 173.098C99.4637 172.734 98.983 172.463 98.4977 172.286C98.0217 172.109 97.527 172.02 97.0137 172.02C96.5377 172.02 96.169 172.109 95.9077 172.286C95.6464 172.463 95.5157 172.683 95.5157 172.944C95.5157 173.187 95.5997 173.378 95.7677 173.518C95.945 173.658 96.2297 173.761 96.6217 173.826L98.5817 174.162C99.4964 174.321 100.192 174.638 100.668 175.114C101.144 175.581 101.382 176.187 101.382 176.934C101.382 177.877 101.004 178.647 100.248 179.244C99.4917 179.841 98.4744 180.14 97.1957 180.14C96.421 180.14 95.679 180.014 94.9697 179.762C94.2697 179.501 93.5977 179.132 92.9537 178.656Z" fill="#8385A9"/>
<g clip-path="url(#clip1_0_333)">
<rect width="148" height="150" rx="8" fill="#191A23"/>
<rect width="148" height="140" rx="8" fill="#343650"/>
<path d="M50.2159 98.8C46.5893 98.8 43.2559 98.1067 40.2159 96.72C37.2293 95.3333 34.6693 93.3867 32.5359 90.88C30.4559 88.3733 28.8293 85.3333 27.6559 81.76C26.5359 78.1867 25.9759 74.24 25.9759 69.92C25.9759 65.6 26.5626 61.68 27.7359 58.16C28.9093 54.5867 30.5359 51.5467 32.6159 49.04C34.7493 46.5333 37.3093 44.5867 40.2959 43.2C43.2826 41.8133 46.5893 41.12 50.2159 41.12C53.8426 41.12 57.1226 41.8133 60.0559 43.2C63.0426 44.5867 65.5759 46.5333 67.6559 49.04C69.7893 51.5467 71.4426 54.5867 72.6159 58.16C73.7893 61.68 74.3759 65.6 74.3759 69.92C74.3759 74.24 73.7893 78.1867 72.6159 81.76C71.4959 85.3333 69.8693 88.3733 67.7359 90.88C65.6559 93.3867 63.1226 95.3333 60.1359 96.72C57.1493 98.1067 53.8426 98.8 50.2159 98.8ZM50.2159 87.92C53.8959 87.92 56.8026 86.32 58.9359 83.12C61.0693 79.8667 62.1359 75.4667 62.1359 69.92C62.1359 64.4267 61.0693 60.08 58.9359 56.88C56.8026 53.6267 53.8959 52 50.2159 52C46.5359 52 43.6026 53.6267 41.4159 56.88C39.2826 60.1333 38.2159 64.48 38.2159 69.92C38.2159 75.4667 39.2826 79.8667 41.4159 83.12C43.6026 86.32 46.5359 87.92 50.2159 87.92ZM100.968 98.88C97.7684 98.88 94.8084 98.48 92.0884 97.68C89.4218 96.8267 87.1284 95.68 85.2084 94.24C83.2884 92.8 81.7951 91.04 80.7284 88.96C79.6618 86.88 79.1284 84.6133 79.1284 82.16C79.1284 79.2267 80.1151 76.6133 82.0884 74.32C84.0618 71.9733 86.5951 70.2933 89.6884 69.28C87.0218 68.2133 84.8618 66.6133 83.2084 64.48C81.5551 62.3467 80.7284 59.9733 80.7284 57.36C80.7284 55.0667 81.2351 52.9333 82.2484 50.96C83.2618 48.9333 84.6751 47.2 86.4884 45.76C88.3018 44.32 90.4351 43.2 92.8884 42.4C95.3418 41.5467 98.0084 41.12 100.888 41.12C103.768 41.12 106.462 41.5467 108.968 42.4C111.475 43.2 113.608 44.32 115.368 45.76C117.182 47.2 118.595 48.9333 119.608 50.96C120.675 52.9333 121.208 55.0667 121.208 57.36C121.208 59.9733 120.382 62.3467 118.728 64.48C117.075 66.6133 114.942 68.2133 112.328 69.28C115.422 70.2933 117.928 71.9733 119.848 74.32C121.822 76.6133 122.808 79.2267 122.808 82.16C122.808 84.6133 122.275 86.88 121.208 88.96C120.142 91.04 118.648 92.8 116.728 94.24C114.808 95.68 112.488 96.8267 109.768 97.68C107.102 98.48 104.168 98.88 100.968 98.88ZM100.968 65.12C103.262 65.12 105.182 64.48 106.728 63.2C108.275 61.8667 109.048 60.2133 109.048 58.24C109.048 56.2667 108.275 54.64 106.728 53.36C105.182 52.0267 103.262 51.36 100.968 51.36C98.6751 51.36 96.7551 52.0267 95.2084 53.36C93.6618 54.64 92.8884 56.2667 92.8884 58.24C92.8884 60.2133 93.6618 61.8667 95.2084 63.2C96.7551 64.48 98.6751 65.12 100.968 65.12ZM100.968 88.56C103.688 88.56 105.928 87.8933 107.688 86.56C109.448 85.1733 110.328 83.4133 110.328 81.28C110.328 79.1467 109.448 77.4133 107.688 76.08C105.928 74.6933 103.688 74 100.968 74C98.2484 74 96.0084 74.6933 94.2484 76.08C92.4884 77.4133 91.6084 79.1467 91.6084 81.28C91.6084 83.4133 92.4884 85.1733 94.2484 86.56C96.0084 87.8933 98.2484 88.56 100.968 88.56Z" fill="#FB5E84"/>
<path opacity="0.150646" d="M0 70H148V8C148 3.58172 144.418 0 140 0H8C3.58173 0 0 3.58172 0 8V70Z" fill="black"/>
<rect opacity="0.253046" y="70" width="148" height="1" fill="black"/>
<circle cy="70" r="6" fill="#191A23"/>
<circle cx="6" cy="6" r="6" transform="matrix(-1 0 0 1 154 64)" fill="#191A23"/>
</g>
</g>
<g clip-path="url(#clip2_0_333)">
<path d="M217.261 180V170.2H219.669V174.008H223.631V170.2H226.039V180H223.631V176.122H219.669V180H217.261ZM243.657 175.1C243.657 175.8 243.527 176.463 243.265 177.088C243.004 177.704 242.645 178.241 242.187 178.698C241.739 179.146 241.207 179.501 240.591 179.762C239.975 180.023 239.313 180.154 238.603 180.154C237.894 180.154 237.227 180.023 236.601 179.762C235.985 179.501 235.449 179.146 234.991 178.698C234.543 178.241 234.189 177.704 233.927 177.088C233.666 176.463 233.535 175.8 233.535 175.1C233.535 174.4 233.666 173.742 233.927 173.126C234.189 172.501 234.543 171.964 234.991 171.516C235.449 171.059 235.985 170.699 236.601 170.438C237.227 170.177 237.894 170.046 238.603 170.046C239.313 170.046 239.975 170.177 240.591 170.438C241.207 170.699 241.739 171.059 242.187 171.516C242.645 171.964 243.004 172.501 243.265 173.126C243.527 173.742 243.657 174.4 243.657 175.1ZM241.165 175.1C241.165 174.689 241.1 174.307 240.969 173.952C240.839 173.588 240.657 173.28 240.423 173.028C240.199 172.767 239.929 172.561 239.611 172.412C239.294 172.263 238.953 172.188 238.589 172.188C238.225 172.188 237.885 172.263 237.567 172.412C237.25 172.561 236.975 172.767 236.741 173.028C236.517 173.28 236.34 173.588 236.209 173.952C236.079 174.307 236.013 174.689 236.013 175.1C236.013 175.511 236.079 175.898 236.209 176.262C236.34 176.617 236.517 176.925 236.741 177.186C236.975 177.438 237.25 177.639 237.567 177.788C237.885 177.937 238.225 178.012 238.589 178.012C238.953 178.012 239.294 177.937 239.611 177.788C239.929 177.639 240.199 177.438 240.423 177.186C240.657 176.925 240.839 176.617 240.969 176.262C241.1 175.898 241.165 175.511 241.165 175.1ZM259.803 175.744C259.803 176.407 259.7 177.009 259.495 177.55C259.29 178.091 258.996 178.553 258.613 178.936C258.24 179.319 257.782 179.617 257.241 179.832C256.709 180.037 256.112 180.14 255.449 180.14C254.786 180.14 254.184 180.037 253.643 179.832C253.111 179.627 252.658 179.333 252.285 178.95C251.912 178.567 251.622 178.105 251.417 177.564C251.212 177.023 251.109 176.416 251.109 175.744V170.2H253.517V175.744C253.517 176.416 253.694 176.957 254.049 177.368C254.404 177.779 254.875 177.984 255.463 177.984C256.051 177.984 256.518 177.779 256.863 177.368C257.218 176.957 257.395 176.416 257.395 175.744V170.2H259.803V175.744ZM267.71 180V170.2H272.47C272.974 170.2 273.436 170.279 273.856 170.438C274.285 170.587 274.649 170.802 274.948 171.082C275.256 171.353 275.494 171.679 275.662 172.062C275.839 172.445 275.928 172.865 275.928 173.322C275.928 173.938 275.76 174.489 275.424 174.974C275.097 175.459 274.659 175.823 274.108 176.066L276.166 180H273.478L271.7 176.402H270.118V180H267.71ZM272.246 172.188H270.118V174.512H272.246C272.619 174.512 272.918 174.405 273.142 174.19C273.375 173.975 273.492 173.695 273.492 173.35C273.492 173.005 273.375 172.725 273.142 172.51C272.918 172.295 272.619 172.188 272.246 172.188ZM282.783 178.656L284.015 176.878C284.687 177.354 285.266 177.69 285.751 177.886C286.237 178.082 286.717 178.18 287.193 178.18C287.707 178.18 288.113 178.087 288.411 177.9C288.71 177.704 288.859 177.457 288.859 177.158C288.859 176.869 288.761 176.649 288.565 176.5C288.379 176.351 288.047 176.229 287.571 176.136L285.485 175.772C284.711 175.623 284.113 175.319 283.693 174.862C283.283 174.405 283.077 173.835 283.077 173.154C283.077 172.211 283.423 171.46 284.113 170.9C284.804 170.34 285.756 170.06 286.969 170.06C287.725 170.06 288.458 170.177 289.167 170.41C289.877 170.634 290.483 170.947 290.987 171.348L289.769 173.098C289.293 172.734 288.813 172.463 288.327 172.286C287.851 172.109 287.357 172.02 286.843 172.02C286.367 172.02 285.999 172.109 285.737 172.286C285.476 172.463 285.345 172.683 285.345 172.944C285.345 173.187 285.429 173.378 285.597 173.518C285.775 173.658 286.059 173.761 286.451 173.826L288.411 174.162C289.326 174.321 290.021 174.638 290.497 175.114C290.973 175.581 291.211 176.187 291.211 176.934C291.211 177.877 290.833 178.647 290.077 179.244C289.321 179.841 288.304 180.14 287.025 180.14C286.251 180.14 285.509 180.014 284.799 179.762C284.099 179.501 283.427 179.132 282.783 178.656Z" fill="#8385A9"/>
<g clip-path="url(#clip3_0_333)">
<rect x="180" width="148" height="150" rx="8" fill="#191A23"/>
<rect x="180" width="148" height="140" rx="8" fill="#343650"/>
<path d="M210.6 98V89.2L234.28 65.76C235.56 64.48 236.494 63.2533 237.08 62.08C237.72 60.8533 238.04 59.6 238.04 58.32C238.04 56.5067 237.24 55.0133 235.64 53.84C234.094 52.6133 232.147 52 229.8 52C227.294 52 224.947 52.5333 222.76 53.6C220.574 54.6667 218.2 56.4267 215.64 58.88L208.76 50.48C211.96 47.44 215.374 45.1467 219 43.6C222.627 42.0533 226.36 41.28 230.2 41.28C236.12 41.28 240.894 42.7733 244.52 45.76C248.2 48.7467 250.04 52.6667 250.04 57.52C250.04 60.1333 249.454 62.5867 248.28 64.88C247.107 67.1733 245.267 69.5467 242.76 72L226.6 87.6L250.84 87.52V98H210.6ZM298.735 82.16C298.735 84.56 298.175 86.8 297.055 88.88C295.935 90.9067 294.388 92.6667 292.415 94.16C290.441 95.6 288.068 96.7467 285.295 97.6C282.575 98.4 279.588 98.8 276.335 98.8C271.855 98.8 267.668 98 263.775 96.4C259.881 94.8 256.708 92.5867 254.255 89.76L262.575 82.08C264.655 84.32 266.681 85.8667 268.655 86.72C270.628 87.5733 273.135 88 276.175 88C279.215 88 281.641 87.3867 283.455 86.16C285.321 84.88 286.255 83.2 286.255 81.12C286.255 79.36 285.588 77.9733 284.255 76.96C282.921 75.8933 281.135 75.36 278.895 75.36H271.695V65.2H277.615C279.908 65.2 281.695 64.6667 282.975 63.6C284.255 62.48 284.895 60.9333 284.895 58.96C284.895 56.9867 284.041 55.36 282.335 54.08C280.681 52.7467 278.601 52.08 276.095 52.08C273.375 52.08 271.055 52.56 269.135 53.52C267.268 54.4267 265.241 56.08 263.055 58.48L254.655 50.88C257.268 47.84 260.521 45.4667 264.415 43.76C268.361 42 272.415 41.12 276.575 41.12C279.615 41.12 282.415 41.52 284.975 42.32C287.535 43.12 289.721 44.24 291.535 45.68C293.348 47.0667 294.761 48.7733 295.775 50.8C296.788 52.7733 297.295 54.9333 297.295 57.28C297.295 60.32 296.308 62.9867 294.335 65.28C292.415 67.5733 289.881 69.1733 286.735 70.08C290.361 70.7733 293.268 72.2133 295.455 74.4C297.641 76.5333 298.735 79.12 298.735 82.16Z" fill="#FB5E84"/>
<path opacity="0.150646" d="M180 70H328V8C328 3.58172 324.418 0 320 0H188C183.582 0 180 3.58172 180 8V70Z" fill="black"/>
<rect opacity="0.253046" x="180" y="70" width="148" height="1" fill="black"/>
<circle cx="180" cy="70" r="6" fill="#191A23"/>
<circle cx="6" cy="6" r="6" transform="matrix(-1 0 0 1 334 64)" fill="#191A23"/>
</g>
</g>
<g clip-path="url(#clip4_0_333)">
<path d="M389.393 179.3L386.243 173.294V180H384.031V170.2H387.055L389.421 174.904L391.773 170.2H394.797V180H392.529V173.35L389.393 179.3ZM402.757 180V170.2H405.165V180H402.757ZM413.122 170.2H415.39L419.744 176.136L419.702 170.2H421.97V180H419.842L415.348 173.868L415.39 180H413.122V170.2ZM438.572 175.744C438.572 176.407 438.47 177.009 438.264 177.55C438.059 178.091 437.765 178.553 437.382 178.936C437.009 179.319 436.552 179.617 436.01 179.832C435.478 180.037 434.881 180.14 434.218 180.14C433.556 180.14 432.954 180.037 432.412 179.832C431.88 179.627 431.428 179.333 431.054 178.95C430.681 178.567 430.392 178.105 430.186 177.564C429.981 177.023 429.878 176.416 429.878 175.744V170.2H432.286V175.744C432.286 176.416 432.464 176.957 432.818 177.368C433.173 177.779 433.644 177.984 434.232 177.984C434.82 177.984 435.287 177.779 435.632 177.368C435.987 176.957 436.164 176.416 436.164 175.744V170.2H438.572V175.744ZM445.681 172.258V170.2H454.403V172.258H451.253V180H448.845V172.258H445.681ZM461.709 180V170.2H469.115V172.216H464.117V174.078H467.645V176.038H464.117V177.984H469.171V180H461.709ZM476.153 178.656L477.385 176.878C478.057 177.354 478.636 177.69 479.121 177.886C479.606 178.082 480.087 178.18 480.563 178.18C481.076 178.18 481.482 178.087 481.781 177.9C482.08 177.704 482.229 177.457 482.229 177.158C482.229 176.869 482.131 176.649 481.935 176.5C481.748 176.351 481.417 176.229 480.941 176.136L478.855 175.772C478.08 175.623 477.483 175.319 477.063 174.862C476.652 174.405 476.447 173.835 476.447 173.154C476.447 172.211 476.792 171.46 477.483 170.9C478.174 170.34 479.126 170.06 480.339 170.06C481.095 170.06 481.828 170.177 482.537 170.41C483.246 170.634 483.853 170.947 484.357 171.348L483.139 173.098C482.663 172.734 482.182 172.463 481.697 172.286C481.221 172.109 480.726 172.02 480.213 172.02C479.737 172.02 479.368 172.109 479.107 172.286C478.846 172.463 478.715 172.683 478.715 172.944C478.715 173.187 478.799 173.378 478.967 173.518C479.144 173.658 479.429 173.761 479.821 173.826L481.781 174.162C482.696 174.321 483.391 174.638 483.867 175.114C484.343 175.581 484.581 176.187 484.581 176.934C484.581 177.877 484.203 178.647 483.447 179.244C482.691 179.841 481.674 180.14 480.395 180.14C479.62 180.14 478.878 180.014 478.169 179.762C477.469 179.501 476.797 179.132 476.153 178.656Z" fill="#8385A9"/>
<g clip-path="url(#clip5_0_333)">
<rect x="360" width="148" height="150" rx="8" fill="#191A23"/>
<rect x="360" width="148" height="140" rx="8" fill="#343650"/>
<path d="M391.449 72.08L392.809 42H429.449V52.48H403.129L402.569 65.04C404.222 64.1867 405.956 63.5467 407.769 63.12C409.636 62.6933 411.556 62.48 413.529 62.48C419.182 62.48 423.742 64.0533 427.209 67.2C430.676 70.2933 432.409 74.4 432.409 79.52C432.409 82.4 431.849 85.04 430.729 87.44C429.609 89.84 428.036 91.8933 426.009 93.6C424.036 95.2533 421.609 96.56 418.729 97.52C415.902 98.4267 412.782 98.88 409.369 98.88C405.529 98.88 401.876 98.24 398.409 96.96C394.942 95.68 391.769 93.8133 388.889 91.36L396.249 82.8C398.596 84.72 400.862 86.1067 403.049 86.96C405.236 87.8133 407.556 88.24 410.009 88.24C412.889 88.24 415.236 87.52 417.049 86.08C418.862 84.5867 419.769 82.6133 419.769 80.16C419.769 77.8133 418.782 75.8667 416.809 74.32C414.836 72.7733 412.382 72 409.449 72C407.902 72 406.356 72.24 404.809 72.72C403.262 73.1467 401.689 73.7867 400.089 74.64L391.449 72.08ZM437.174 72.08L438.534 42H475.174V52.48H448.854L448.294 65.04C449.947 64.1867 451.681 63.5467 453.494 63.12C455.361 62.6933 457.281 62.48 459.254 62.48C464.907 62.48 469.467 64.0533 472.934 67.2C476.401 70.2933 478.134 74.4 478.134 79.52C478.134 82.4 477.574 85.04 476.454 87.44C475.334 89.84 473.761 91.8933 471.734 93.6C469.761 95.2533 467.334 96.56 464.454 97.52C461.627 98.4267 458.507 98.88 455.094 98.88C451.254 98.88 447.601 98.24 444.134 96.96C440.667 95.68 437.494 93.8133 434.614 91.36L441.974 82.8C444.321 84.72 446.587 86.1067 448.774 86.96C450.961 87.8133 453.281 88.24 455.734 88.24C458.614 88.24 460.961 87.52 462.774 86.08C464.587 84.5867 465.494 82.6133 465.494 80.16C465.494 77.8133 464.507 75.8667 462.534 74.32C460.561 72.7733 458.107 72 455.174 72C453.627 72 452.081 72.24 450.534 72.72C448.987 73.1467 447.414 73.7867 445.814 74.64L437.174 72.08Z" fill="#FB5E84"/>
<path opacity="0.150646" d="M360 70H508V8C508 3.58172 504.418 0 500 0H368C363.582 0 360 3.58172 360 8V70Z" fill="black"/>
<rect opacity="0.253046" x="360" y="70" width="148" height="1" fill="black"/>
<circle cx="360" cy="70" r="6" fill="#191A23"/>
<circle cx="6" cy="6" r="6" transform="matrix(-1 0 0 1 514 64)" fill="#191A23"/>
</g>
</g>
<g clip-path="url(#clip6_0_333)">
<path d="M561.441 178.656L562.673 176.878C563.345 177.354 563.924 177.69 564.409 177.886C564.895 178.082 565.375 178.18 565.851 178.18C566.365 178.18 566.771 178.087 567.069 177.9C567.368 177.704 567.517 177.457 567.517 177.158C567.517 176.869 567.419 176.649 567.223 176.5C567.037 176.351 566.705 176.229 566.229 176.136L564.143 175.772C563.369 175.623 562.771 175.319 562.351 174.862C561.941 174.405 561.735 173.835 561.735 173.154C561.735 172.211 562.081 171.46 562.771 170.9C563.462 170.34 564.414 170.06 565.627 170.06C566.383 170.06 567.116 170.177 567.825 170.41C568.535 170.634 569.141 170.947 569.645 171.348L568.427 173.098C567.951 172.734 567.471 172.463 566.985 172.286C566.509 172.109 566.015 172.02 565.501 172.02C565.025 172.02 564.657 172.109 564.395 172.286C564.134 172.463 564.003 172.683 564.003 172.944C564.003 173.187 564.087 173.378 564.255 173.518C564.433 173.658 564.717 173.761 565.109 173.826L567.069 174.162C567.984 174.321 568.679 174.638 569.155 175.114C569.631 175.581 569.869 176.187 569.869 176.934C569.869 177.877 569.491 178.647 568.735 179.244C567.979 179.841 566.962 180.14 565.683 180.14C564.909 180.14 564.167 180.014 563.457 179.762C562.757 179.501 562.085 179.132 561.441 178.656ZM577.36 180V170.2H584.766V172.216H579.768V174.078H583.296V176.038H579.768V177.984H584.822V180H577.36ZM596.926 177.984C597.365 177.984 597.771 177.881 598.144 177.676C598.517 177.471 598.858 177.167 599.166 176.766L600.748 178.264C600.319 178.824 599.749 179.277 599.04 179.622C598.331 179.967 597.598 180.14 596.842 180.14C596.114 180.14 595.433 180.009 594.798 179.748C594.163 179.487 593.617 179.132 593.16 178.684C592.703 178.236 592.339 177.704 592.068 177.088C591.807 176.472 591.676 175.809 591.676 175.1C591.676 174.391 591.807 173.728 592.068 173.112C592.339 172.487 592.703 171.95 593.16 171.502C593.627 171.054 594.173 170.699 594.798 170.438C595.433 170.177 596.114 170.046 596.842 170.046C597.626 170.046 598.377 170.219 599.096 170.564C599.815 170.909 600.389 171.371 600.818 171.95L599.194 173.49C598.877 173.061 598.517 172.739 598.116 172.524C597.724 172.3 597.299 172.188 596.842 172.188C596.459 172.188 596.105 172.263 595.778 172.412C595.451 172.561 595.167 172.767 594.924 173.028C594.691 173.28 594.504 173.588 594.364 173.952C594.233 174.307 594.168 174.689 594.168 175.1C594.168 175.511 594.238 175.893 594.378 176.248C594.518 176.603 594.709 176.911 594.952 177.172C595.204 177.424 595.498 177.625 595.834 177.774C596.17 177.914 596.534 177.984 596.926 177.984ZM617.588 175.1C617.588 175.8 617.457 176.463 617.196 177.088C616.935 177.704 616.575 178.241 616.118 178.698C615.67 179.146 615.138 179.501 614.522 179.762C613.906 180.023 613.243 180.154 612.534 180.154C611.825 180.154 611.157 180.023 610.532 179.762C609.916 179.501 609.379 179.146 608.922 178.698C608.474 178.241 608.119 177.704 607.858 177.088C607.597 176.463 607.466 175.8 607.466 175.1C607.466 174.4 607.597 173.742 607.858 173.126C608.119 172.501 608.474 171.964 608.922 171.516C609.379 171.059 609.916 170.699 610.532 170.438C611.157 170.177 611.825 170.046 612.534 170.046C613.243 170.046 613.906 170.177 614.522 170.438C615.138 170.699 615.67 171.059 616.118 171.516C616.575 171.964 616.935 172.501 617.196 173.126C617.457 173.742 617.588 174.4 617.588 175.1ZM615.096 175.1C615.096 174.689 615.031 174.307 614.9 173.952C614.769 173.588 614.587 173.28 614.354 173.028C614.13 172.767 613.859 172.561 613.542 172.412C613.225 172.263 612.884 172.188 612.52 172.188C612.156 172.188 611.815 172.263 611.498 172.412C611.181 172.561 610.905 172.767 610.672 173.028C610.448 173.28 610.271 173.588 610.14 173.952C610.009 174.307 609.944 174.689 609.944 175.1C609.944 175.511 610.009 175.898 610.14 176.262C610.271 176.617 610.448 176.925 610.672 177.186C610.905 177.438 611.181 177.639 611.498 177.788C611.815 177.937 612.156 178.012 612.52 178.012C612.884 178.012 613.225 177.937 613.542 177.788C613.859 177.639 614.13 177.438 614.354 177.186C614.587 176.925 614.769 176.617 614.9 176.262C615.031 175.898 615.096 175.511 615.096 175.1ZM625.235 170.2H627.503L631.857 176.136L631.815 170.2H634.083V180H631.955L627.461 173.868L627.503 180H625.235V170.2ZM642.187 180V170.2H646.177C646.859 170.2 647.498 170.331 648.095 170.592C648.702 170.844 649.225 171.189 649.663 171.628C650.111 172.067 650.461 172.589 650.713 173.196C650.975 173.793 651.105 174.437 651.105 175.128C651.105 175.8 650.975 176.435 650.713 177.032C650.461 177.629 650.111 178.147 649.663 178.586C649.225 179.025 648.702 179.37 648.095 179.622C647.498 179.874 646.859 180 646.177 180H642.187ZM646.177 172.258H644.595V177.942H646.177C646.513 177.942 646.831 177.872 647.129 177.732C647.428 177.583 647.685 177.382 647.899 177.13C648.123 176.878 648.296 176.579 648.417 176.234C648.548 175.889 648.613 175.52 648.613 175.128C648.613 174.727 648.548 174.353 648.417 174.008C648.296 173.653 648.123 173.35 647.899 173.098C647.685 172.837 647.428 172.631 647.129 172.482C646.831 172.333 646.513 172.258 646.177 172.258ZM657.917 178.656L659.149 176.878C659.821 177.354 660.399 177.69 660.885 177.886C661.37 178.082 661.851 178.18 662.327 178.18C662.84 178.18 663.246 178.087 663.545 177.9C663.843 177.704 663.993 177.457 663.993 177.158C663.993 176.869 663.895 176.649 663.699 176.5C663.512 176.351 663.181 176.229 662.705 176.136L660.619 175.772C659.844 175.623 659.247 175.319 658.827 174.862C658.416 174.405 658.211 173.835 658.211 173.154C658.211 172.211 658.556 171.46 659.247 170.9C659.937 170.34 660.889 170.06 662.103 170.06C662.859 170.06 663.591 170.177 664.301 170.41C665.01 170.634 665.617 170.947 666.121 171.348L664.903 173.098C664.427 172.734 663.946 172.463 663.461 172.286C662.985 172.109 662.49 172.02 661.977 172.02C661.501 172.02 661.132 172.109 660.871 172.286C660.609 172.463 660.479 172.683 660.479 172.944C660.479 173.187 660.563 173.378 660.731 173.518C660.908 173.658 661.193 173.761 661.585 173.826L663.545 174.162C664.459 174.321 665.155 174.638 665.631 175.114C666.107 175.581 666.345 176.187 666.345 176.934C666.345 177.877 665.967 178.647 665.211 179.244C664.455 179.841 663.437 180.14 662.159 180.14C661.384 180.14 660.642 180.014 659.933 179.762C659.233 179.501 658.561 179.132 657.917 178.656Z" fill="#8385A9"/>
<g clip-path="url(#clip7_0_333)">
<rect x="540" width="148" height="150" rx="8" fill="#191A23"/>
<rect x="540" width="148" height="140" rx="8" fill="#343650"/>
<path d="M619.228 42V74.96H625.868V85.44H619.228V98H606.908V85.44H576.988V75.28L604.828 42H619.228ZM589.788 74.96H606.908V54.32L589.788 74.96ZM650.431 42V98H638.111V54.8L627.071 59.36V48.48L642.671 42H650.431Z" fill="#FB5E84"/>
<path opacity="0.150646" d="M540 70H688V8C688 3.58172 684.418 0 680 0H548C543.582 0 540 3.58172 540 8V70Z" fill="black"/>
<rect opacity="0.253046" x="540" y="70" width="148" height="1" fill="black"/>
<circle cx="540" cy="70" r="6" fill="#191A23"/>
<circle cx="6" cy="6" r="6" transform="matrix(-1 0 0 1 694 64)" fill="#191A23"/>
</g>
</g>
<defs>
<clipPath id="clip0_0_333">
<rect width="148" height="184" fill="white"/>
</clipPath>
<clipPath id="clip1_0_333">
<rect width="148" height="150" fill="white"/>
</clipPath>
<clipPath id="clip2_0_333">
<rect width="148" height="184" fill="white" transform="translate(180)"/>
</clipPath>
<clipPath id="clip3_0_333">
<rect width="148" height="150" fill="white" transform="translate(180)"/>
</clipPath>
<clipPath id="clip4_0_333">
<rect width="148" height="184" fill="white" transform="translate(360)"/>
</clipPath>
<clipPath id="clip5_0_333">
<rect width="148" height="150" fill="white" transform="translate(360)"/>
</clipPath>
<clipPath id="clip6_0_333">
<rect width="148" height="184" fill="white" transform="translate(540)"/>
</clipPath>
<clipPath id="clip7_0_333">
<rect width="148" height="150" fill="white" transform="translate(540)"/>
</clipPath>
</defs>
</svg>
