<svg width="441" height="29" viewBox="0 0 441 29" fill="none" xmlns="http://www.w3.org/2000/svg">
<path d="M13.1536 22H9.14962L5.71762 6.6H9.61162L11.4816 16.148L14.1656 6.6H17.7076L20.3916 16.148L22.2616 6.6H26.0236L22.5916 22H18.5876L15.8816 12.078L13.1536 22ZM35.9084 22V6.6H47.5464V9.768H39.6924V12.694H45.2364V15.774H39.6924V18.832H47.6344V22H35.9084ZM59.218 5.5H62.716L60.12 12.188H57.568L59.218 5.5ZM71.9846 22V6.6H79.4646C80.2566 6.6 80.9826 6.72467 81.6426 6.974C82.3172 7.20867 82.8892 7.546 83.3586 7.986C83.8426 8.41133 84.2166 8.92467 84.4806 9.526C84.7592 10.1273 84.8986 10.7873 84.8986 11.506C84.8986 12.474 84.6346 13.3393 84.1066 14.102C83.5932 14.8647 82.9039 15.4367 82.0386 15.818L85.2726 22H81.0486L78.2546 16.346H75.7686V22H71.9846ZM79.1126 9.724H75.7686V13.376H79.1126C79.6992 13.376 80.1686 13.2073 80.5206 12.87C80.8872 12.5327 81.0706 12.0927 81.0706 11.55C81.0706 11.0073 80.8872 10.5673 80.5206 10.23C80.1686 9.89267 79.6992 9.724 79.1126 9.724ZM94.9533 22V6.6H106.591V9.768H98.7373V12.694H104.281V15.774H98.7373V18.832H106.679V22H94.9533ZM129.375 22V6.6H133.159V18.766H140.793V22H129.375ZM149.684 22L155.69 6.6H160.002L165.92 22H161.828L160.552 18.326H154.92L153.622 22H149.684ZM155.954 15.4H159.54L157.758 10.296L155.954 15.4ZM187.979 15.312C187.979 16.3533 187.818 17.2993 187.495 18.15C187.173 19.0007 186.711 19.7267 186.109 20.328C185.523 20.9293 184.804 21.3987 183.953 21.736C183.117 22.0587 182.179 22.22 181.137 22.22C180.096 22.22 179.15 22.0587 178.299 21.736C177.463 21.4133 176.752 20.9513 176.165 20.35C175.579 19.7487 175.124 19.0227 174.801 18.172C174.479 17.3213 174.317 16.368 174.317 15.312V6.6H178.101V15.312C178.101 16.368 178.38 17.2187 178.937 17.864C179.495 18.5093 180.235 18.832 181.159 18.832C182.083 18.832 182.817 18.5093 183.359 17.864C183.917 17.2187 184.195 16.368 184.195 15.312V6.6H187.979V15.312ZM198.604 6.6H202.168L209.01 15.928L208.944 6.6H212.508V22H209.164L202.102 12.364L202.168 22H198.604V6.6ZM230.966 18.832C231.655 18.832 232.293 18.6707 232.88 18.348C233.466 18.0253 234.002 17.5487 234.486 16.918L236.972 19.272C236.297 20.152 235.402 20.8633 234.288 21.406C233.173 21.9487 232.022 22.22 230.834 22.22C229.69 22.22 228.619 22.0147 227.622 21.604C226.624 21.1933 225.766 20.636 225.048 19.932C224.329 19.228 223.757 18.392 223.332 17.424C222.921 16.456 222.716 15.4147 222.716 14.3C222.716 13.1853 222.921 12.144 223.332 11.176C223.757 10.1933 224.329 9.35 225.048 8.646C225.781 7.942 226.639 7.38467 227.622 6.974C228.619 6.56333 229.69 6.358 230.834 6.358C232.066 6.358 233.246 6.62933 234.376 7.172C235.505 7.71467 236.407 8.44067 237.082 9.35L234.53 11.77C234.031 11.0953 233.466 10.5893 232.836 10.252C232.22 9.9 231.552 9.724 230.834 9.724C230.232 9.724 229.675 9.84133 229.162 10.076C228.648 10.3107 228.201 10.6333 227.82 11.044C227.453 11.44 227.16 11.924 226.94 12.496C226.734 13.0533 226.632 13.6547 226.632 14.3C226.632 14.9453 226.742 15.5467 226.962 16.104C227.182 16.6613 227.482 17.1453 227.864 17.556C228.26 17.952 228.722 18.2673 229.25 18.502C229.778 18.722 230.35 18.832 230.966 18.832ZM246.556 22V6.6H250.34V12.584H256.566V6.6H260.35V22H256.566V15.906H250.34V22H246.556ZM270.835 22V6.6H274.619V22H270.835ZM285.322 6.6H288.886L295.728 15.928L295.662 6.6H299.226V22H295.882L288.82 12.364L288.886 22H285.322V6.6ZM325.186 14.234C325.186 15.378 324.996 16.4413 324.614 17.424C324.233 18.4067 323.705 19.2573 323.03 19.976C322.356 20.68 321.542 21.2373 320.588 21.648C319.65 22.044 318.63 22.242 317.53 22.242C316.401 22.242 315.338 22.0367 314.34 21.626C313.358 21.2153 312.5 20.658 311.766 19.954C311.048 19.2353 310.476 18.392 310.05 17.424C309.64 16.456 309.434 15.4147 309.434 14.3C309.434 13.1853 309.64 12.144 310.05 11.176C310.476 10.208 311.048 9.372 311.766 8.668C312.485 7.94933 313.336 7.38467 314.318 6.974C315.301 6.56333 316.35 6.358 317.464 6.358C318.74 6.358 319.958 6.622 321.116 7.15C322.275 7.66333 323.214 8.39667 323.932 9.35L321.27 11.66C320.786 11.0147 320.214 10.5307 319.554 10.208C318.909 9.88533 318.212 9.724 317.464 9.724C316.878 9.724 316.328 9.84133 315.814 10.076C315.316 10.3107 314.883 10.6333 314.516 11.044C314.15 11.44 313.864 11.924 313.658 12.496C313.453 13.0533 313.35 13.6547 313.35 14.3C313.35 14.96 313.453 15.576 313.658 16.148C313.878 16.7053 314.179 17.1893 314.56 17.6C314.942 18.0107 315.389 18.3333 315.902 18.568C316.43 18.8027 316.995 18.92 317.596 18.92C318.462 18.92 319.21 18.678 319.84 18.194C320.486 17.71 320.911 17.094 321.116 16.346H317.266V13.156H325.186V14.234ZM346.314 19.888L348.25 17.094C349.306 17.842 350.215 18.37 350.978 18.678C351.74 18.986 352.496 19.14 353.244 19.14C354.05 19.14 354.688 18.9933 355.158 18.7C355.627 18.392 355.862 18.0033 355.862 17.534C355.862 17.0793 355.708 16.7347 355.4 16.5C355.106 16.2653 354.586 16.0747 353.838 15.928L350.56 15.356C349.342 15.1213 348.404 14.6447 347.744 13.926C347.098 13.2073 346.776 12.3127 346.776 11.242C346.776 9.76067 347.318 8.58 348.404 7.7C349.489 6.82 350.985 6.38 352.892 6.38C354.08 6.38 355.231 6.56333 356.346 6.93C357.46 7.282 358.414 7.77333 359.206 8.404L357.292 11.154C356.544 10.582 355.788 10.1567 355.026 9.878C354.278 9.59933 353.5 9.46 352.694 9.46C351.946 9.46 351.366 9.59933 350.956 9.878C350.545 10.1567 350.34 10.5013 350.34 10.912C350.34 11.2933 350.472 11.594 350.736 11.814C351.014 12.034 351.462 12.1953 352.078 12.298L355.158 12.826C356.595 13.0753 357.688 13.574 358.436 14.322C359.184 15.0553 359.558 16.0087 359.558 17.182C359.558 18.6633 358.964 19.8733 357.776 20.812C356.588 21.7507 354.989 22.22 352.98 22.22C351.762 22.22 350.596 22.022 349.482 21.626C348.382 21.2153 347.326 20.636 346.314 19.888ZM384.708 14.3C384.708 15.4 384.502 16.4413 384.092 17.424C383.681 18.392 383.116 19.2353 382.398 19.954C381.694 20.658 380.858 21.2153 379.89 21.626C378.922 22.0367 377.88 22.242 376.766 22.242C375.651 22.242 374.602 22.0367 373.62 21.626C372.652 21.2153 371.808 20.658 371.09 19.954C370.386 19.2353 369.828 18.392 369.418 17.424C369.007 16.4413 368.802 15.4 368.802 14.3C368.802 13.2 369.007 12.166 369.418 11.198C369.828 10.2153 370.386 9.372 371.09 8.668C371.808 7.94933 372.652 7.38467 373.62 6.974C374.602 6.56333 375.651 6.358 376.766 6.358C377.88 6.358 378.922 6.56333 379.89 6.974C380.858 7.38467 381.694 7.94933 382.398 8.668C383.116 9.372 383.681 10.2153 384.092 11.198C384.502 12.166 384.708 13.2 384.708 14.3ZM380.792 14.3C380.792 13.6547 380.689 13.0533 380.484 12.496C380.278 11.924 379.992 11.44 379.626 11.044C379.274 10.6333 378.848 10.3107 378.35 10.076C377.851 9.84133 377.316 9.724 376.744 9.724C376.172 9.724 375.636 9.84133 375.138 10.076C374.639 10.3107 374.206 10.6333 373.84 11.044C373.488 11.44 373.209 11.924 373.004 12.496C372.798 13.0533 372.696 13.6547 372.696 14.3C372.696 14.9453 372.798 15.554 373.004 16.126C373.209 16.6833 373.488 17.1673 373.84 17.578C374.206 17.974 374.639 18.2893 375.138 18.524C375.636 18.7587 376.172 18.876 376.744 18.876C377.316 18.876 377.851 18.7587 378.35 18.524C378.848 18.2893 379.274 17.974 379.626 17.578C379.992 17.1673 380.278 16.6833 380.484 16.126C380.689 15.554 380.792 14.9453 380.792 14.3ZM410.104 14.3C410.104 15.4 409.899 16.4413 409.488 17.424C409.077 18.392 408.513 19.2353 407.794 19.954C407.09 20.658 406.254 21.2153 405.286 21.626C404.318 22.0367 403.277 22.242 402.162 22.242C401.047 22.242 399.999 22.0367 399.016 21.626C398.048 21.2153 397.205 20.658 396.486 19.954C395.782 19.2353 395.225 18.392 394.814 17.424C394.403 16.4413 394.198 15.4 394.198 14.3C394.198 13.2 394.403 12.166 394.814 11.198C395.225 10.2153 395.782 9.372 396.486 8.668C397.205 7.94933 398.048 7.38467 399.016 6.974C399.999 6.56333 401.047 6.358 402.162 6.358C403.277 6.358 404.318 6.56333 405.286 6.974C406.254 7.38467 407.09 7.94933 407.794 8.668C408.513 9.372 409.077 10.2153 409.488 11.198C409.899 12.166 410.104 13.2 410.104 14.3ZM406.188 14.3C406.188 13.6547 406.085 13.0533 405.88 12.496C405.675 11.924 405.389 11.44 405.022 11.044C404.67 10.6333 404.245 10.3107 403.746 10.076C403.247 9.84133 402.712 9.724 402.14 9.724C401.568 9.724 401.033 9.84133 400.534 10.076C400.035 10.3107 399.603 10.6333 399.236 11.044C398.884 11.44 398.605 11.924 398.4 12.496C398.195 13.0533 398.092 13.6547 398.092 14.3C398.092 14.9453 398.195 15.554 398.4 16.126C398.605 16.6833 398.884 17.1673 399.236 17.578C399.603 17.974 400.035 18.2893 400.534 18.524C401.033 18.7587 401.568 18.876 402.14 18.876C402.712 18.876 403.247 18.7587 403.746 18.524C404.245 18.2893 404.67 17.974 405.022 17.578C405.389 17.1673 405.675 16.6833 405.88 16.126C406.085 15.554 406.188 14.9453 406.188 14.3ZM420.32 6.6H423.884L430.726 15.928L430.66 6.6H434.224V22H430.88L423.818 12.364L423.884 22H420.32V6.6Z" fill="white"/>
</svg>
